<svg width="22" height="23" viewBox="0 0 22 23" fill="none" xmlns="http://www.w3.org/2000/svg">
<path d="M21 11.0106V20.5099C21 20.786 20.7762 21.0099 20.5 21.0099L1.50004 21.0115C1.22388 21.0115 0.999998 20.7876 1 20.5115L1.00009 1.50989C1.0001 1.23373 1.22398 1.00987 1.50013 1.00989L11 1.01063M9.87395 15.0537L6.29458 16.3523C5.89578 16.497 5.50935 16.1106 5.65403 15.7118L6.95262 12.1324M9.87395 15.0537L17.9884 6.93931M9.87395 15.0537L6.95262 12.1324M6.95262 12.1324L15.067 4.01797M17.9884 6.93931L20.6461 4.28157C20.8414 4.08631 20.8414 3.76973 20.6461 3.57446L18.4319 1.36024C18.2366 1.16497 17.92 1.16497 17.7248 1.36024L15.067 4.01797M17.9884 6.93931L15.067 4.01797" stroke="#0F62FE" stroke-width="2" stroke-linecap="round"/>
</svg>
