<svg width="22" height="19" viewBox="0 0 22 19" fill="none" xmlns="http://www.w3.org/2000/svg">
<path d="M10.4158 2.97143C10.4158 2.97143 18.6632 2.97159 19.8316 2.97159C21 2.97159 21 2.97159 21 4.27928C21 5.58697 20.5336 13.4331 17.4777 13.433C17.4777 13.433 8.06186 13.4328 6.88488 13.433C5.7079 13.4331 5.7079 1.01005 3.35395 1.00989L1 1.00989M8.64706 18.0099C8.97193 18.0099 9.23529 17.7172 9.23529 17.356C9.23529 16.9949 8.97193 16.7022 8.64706 16.7022C8.32219 16.7022 8.05882 16.9949 8.05882 17.356C8.05882 17.7172 8.32219 18.0099 8.64706 18.0099ZM16.8824 18.0099C17.2072 18.0099 17.4706 17.7172 17.4706 17.356C17.4706 16.9949 17.2072 16.7022 16.8824 16.7022C16.5575 16.7022 16.2941 16.9949 16.2941 17.356C16.2941 17.7172 16.5575 18.0099 16.8824 18.0099Z" stroke="#0F62FE" stroke-width="2" stroke-linecap="round"/>
</svg>
