<svg width="272" height="122" viewBox="0 0 272 122" fill="none" xmlns="http://www.w3.org/2000/svg">
<path fill-rule="evenodd" clip-rule="evenodd" d="M271 100.319V62.8861L229.754 21.656H189.864V86.2136H184.437V1.04095L60 1.04095C56.7437 1.04095 55.6583 4.2961 55.6583 5.38096C55.6583 6.46583 56.7437 9.72098 60 9.72098H105.472C108.457 9.72098 110.628 11.3483 110.628 14.3322C110.628 17.177 109.815 19.4835 105.479 19.486L105.472 19.486L34.1055 19.486C30.8492 19.486 29.7638 22.7411 29.7638 23.826C29.7638 24.9109 30.8492 28.166 34.1055 28.166H142.648C145.633 28.166 147.804 29.7934 147.804 32.7773C147.804 35.6236 146.99 37.931 142.648 37.931H5.34171C2.08543 37.931 1 41.1862 1 42.271C1 43.3559 2.08543 46.6111 5.34171 46.6111H119.04C122.025 46.6111 124.196 48.2384 124.196 51.2223C124.196 54.0687 123.382 56.6472 119.04 56.6472H46.0452C42.7889 56.6472 41.7035 59.9023 41.7035 60.9872C41.7035 62.0721 42.7889 65.0561 46.0452 65.0561H87.2915C90.2764 65.0561 92.4472 66.6833 92.4472 69.6672C92.4472 72.5136 91.6332 75.0922 87.2915 75.0922H59.6131C56.3568 75.0922 55.2714 78.3474 55.2714 79.4322C55.2714 80.5171 56.3568 84.0436 59.6131 84.0436H61.2412V100.319H88.9196C88.9196 100.319 91.9045 82.416 110.085 82.416C128.266 82.416 132.337 100.319 132.337 100.319H201.804C201.804 100.319 204.789 82.416 223.513 82.416C242.236 82.416 245.221 100.319 245.221 100.319L271 100.319ZM226.226 29.2509L260.417 63.4285H199.09V29.2509H226.226Z" fill="#1B1B1B"/>
<path fill-rule="evenodd" clip-rule="evenodd" d="M223.513 88.1123C214.371 88.1123 206.96 95.5203 206.96 104.659C206.96 113.797 214.371 121.205 223.513 121.205C232.654 121.205 240.065 113.797 240.065 104.659C240.065 95.5203 232.654 88.1123 223.513 88.1123ZM218.628 104.659C218.628 101.962 220.815 99.776 223.513 99.776C226.21 99.776 228.397 101.962 228.397 104.659C228.397 107.355 226.21 109.541 223.513 109.541C220.815 109.541 218.628 107.355 218.628 104.659Z" fill="#1B1B1B"/>
<path fill-rule="evenodd" clip-rule="evenodd" d="M110.085 88.1123C100.944 88.1123 93.5327 95.5203 93.5327 104.659C93.5327 113.797 100.944 121.205 110.085 121.205C119.227 121.205 126.638 113.797 126.638 104.659C126.638 95.5203 119.227 88.1123 110.085 88.1123ZM105.201 104.659C105.201 101.962 107.388 99.776 110.085 99.776C112.783 99.776 114.97 101.962 114.97 104.659C114.97 107.355 112.783 109.541 110.085 109.541C107.388 109.541 105.201 107.355 105.201 104.659Z" fill="#1B1B1B"/>
<path d="M184.437 1.04095V86.2136H189.864V21.656H229.754L271 62.8861V100.319L245.221 100.319C245.221 100.319 242.236 82.416 223.513 82.416C204.789 82.416 201.804 100.319 201.804 100.319H132.337C132.337 100.319 128.266 82.416 110.085 82.416C91.9045 82.416 88.9196 100.319 88.9196 100.319H61.2412V84.0436H59.6131C56.3568 84.0436 55.2714 80.5171 55.2714 79.4322C55.2714 78.3474 56.3568 75.0922 59.6131 75.0922H87.2915C91.6332 75.0922 92.4472 72.5136 92.4472 69.6672C92.4472 66.6833 90.2764 65.0561 87.2915 65.0561H46.0452C42.7889 65.0561 41.7035 62.0721 41.7035 60.9872C41.7035 59.9023 42.7889 56.6472 46.0452 56.6472H119.04C123.382 56.6472 124.196 54.0687 124.196 51.2223C124.196 48.2384 122.025 46.6111 119.04 46.6111H5.34171C2.08543 46.6111 1 43.3559 1 42.271C1 41.1862 2.08543 37.931 5.34171 37.931H142.648C146.99 37.931 147.804 35.6236 147.804 32.7773C147.804 29.7934 145.633 28.166 142.648 28.166H34.1055C30.8492 28.166 29.7638 24.9109 29.7638 23.826C29.7638 22.7411 30.8492 19.486 34.1055 19.486M184.437 1.04095C184.437 1.04095 108.111 1.04095 60 1.04095M184.437 1.04095L60 1.04095M60 1.04095C56.7437 1.04095 55.6583 4.2961 55.6583 5.38096C55.6583 6.46583 56.7437 9.72098 60 9.72098M60 9.72098C70.5829 9.72098 88.199 9.72098 105.472 9.72098M60 9.72098H105.472M105.472 9.72098C108.457 9.72098 110.628 11.3483 110.628 14.3322C110.628 17.177 109.815 19.4835 105.479 19.486M105.472 19.486C105.475 19.486 105.477 19.486 105.479 19.486M105.472 19.486L105.479 19.486M105.472 19.486L34.1055 19.486M34.1055 19.486H105.479M260.417 63.4285L226.226 29.2509H199.09V63.4285H260.417ZM110.085 88.1123C100.944 88.1123 93.5327 95.5203 93.5327 104.659C93.5327 113.797 100.944 121.205 110.085 121.205C119.227 121.205 126.638 113.797 126.638 104.659C126.638 95.5203 119.227 88.1123 110.085 88.1123ZM110.085 99.776C107.388 99.776 105.201 101.962 105.201 104.659C105.201 107.355 107.388 109.541 110.085 109.541C112.783 109.541 114.97 107.355 114.97 104.659C114.97 101.962 112.783 99.776 110.085 99.776ZM223.513 88.1123C214.371 88.1123 206.96 95.5203 206.96 104.659C206.96 113.797 214.371 121.205 223.513 121.205C232.654 121.205 240.065 113.797 240.065 104.659C240.065 95.5203 232.654 88.1123 223.513 88.1123ZM223.513 99.776C220.815 99.776 218.628 101.962 218.628 104.659C218.628 107.355 220.815 109.541 223.513 109.541C226.21 109.541 228.397 107.355 228.397 104.659C228.397 101.962 226.21 99.776 223.513 99.776Z" stroke="black" stroke-width="0.5"/>
</svg>
