<svg width="20" height="21" viewBox="0 0 20 21" fill="none" xmlns="http://www.w3.org/2000/svg">
<g clip-path="url(#clip0_361_113)">
<path d="M19.9401 6.37708C19.8914 5.31262 19.7224 4.58569 19.4752 3.94971C19.2242 3.28244 18.8305 2.67804 18.3218 2.17847C17.8224 1.66974 17.2178 1.27591 16.5505 1.02475C15.9144 0.77771 15.1876 0.608795 14.1232 0.560425C13.0567 0.511597 12.716 0.5 10.0002 0.5C7.28448 0.5 6.94376 0.511597 5.87732 0.56012C4.81287 0.608795 4.08609 0.777863 3.44995 1.02506C2.78268 1.27606 2.17828 1.66974 1.67871 2.17847C1.16998 2.67789 0.776154 3.28229 0.524994 3.94956C0.277954 4.58569 0.109039 5.31262 0.0606689 6.37692C0.0118408 7.44351 0.000244141 7.78409 0.000244141 10.4998C0.000244141 13.2158 0.0118408 13.5565 0.0606689 14.6229C0.109192 15.6872 0.278259 16.4142 0.525452 17.0503C0.776459 17.7174 1.17014 18.322 1.67886 18.8214C2.17828 19.3301 2.78284 19.7238 3.4501 19.9748C4.08609 20.2221 4.81302 20.3911 5.87747 20.4397C6.94406 20.4884 7.28464 20.4999 10.0004 20.4999C12.7162 20.4999 13.0569 20.4884 14.1233 20.4397C15.1878 20.3911 15.9146 20.2221 16.5507 19.9748C17.8939 19.4554 18.9558 18.3935 19.4752 17.0503C19.7225 16.4142 19.8914 15.6872 19.9401 14.6229C19.9886 13.5563 20.0002 13.2158 20.0002 10.5C20.0002 7.78409 19.9886 7.44351 19.9401 6.37708ZM18.14 14.541C18.0956 15.516 17.9327 16.0455 17.7958 16.3978C17.4594 17.27 16.7701 17.9593 15.8979 18.2957C15.5456 18.4326 15.0161 18.5956 14.0411 18.64C12.9868 18.6882 12.6705 18.6982 10.0002 18.6982C7.3298 18.6982 7.01364 18.6882 5.95926 18.64C4.98438 18.5956 4.4549 18.4326 4.10242 18.2957C3.66815 18.1353 3.27524 17.8798 2.95267 17.5476C2.62048 17.225 2.3649 16.8322 2.20453 16.3978C2.06766 16.0455 1.90469 15.516 1.86029 14.541C1.81223 13.4866 1.802 13.1703 1.802 10.5002C1.802 7.82987 1.81223 7.5137 1.86029 6.45917C1.90485 5.48413 2.06766 4.95465 2.20453 4.60233C2.3649 4.16791 2.62064 3.77499 2.95267 3.45242C3.27524 3.12024 3.66815 2.86466 4.10257 2.70444C4.4549 2.56741 4.98438 2.4046 5.95941 2.36005C7.01379 2.31198 7.33011 2.30176 10.0002 2.30176H10.0001C12.6702 2.30176 12.9865 2.31198 14.0411 2.3602C15.0161 2.4046 15.5454 2.56757 15.8979 2.70444C16.3322 2.86481 16.7251 3.12039 17.0477 3.45242C17.3799 3.77499 17.6354 4.16791 17.7957 4.60233C17.9327 4.95465 18.0956 5.48413 18.14 6.45917C18.1881 7.51355 18.1983 7.82987 18.1983 10.5C18.1983 13.1703 18.1883 13.4865 18.14 14.541Z" fill="white"/>
<path d="M10.0001 5.36475C7.16409 5.36475 4.86505 7.66394 4.86505 10.4999C4.86505 13.3359 7.16409 15.635 10.0001 15.635C12.8362 15.635 15.1353 13.3359 15.1353 10.4999C15.1353 7.66394 12.8362 5.36475 10.0001 5.36475ZM10.0001 13.8332C8.15927 13.8331 6.66681 12.3408 6.66696 10.4998C6.66696 8.65897 8.15927 7.1665 10.0002 7.1665C11.8412 7.16666 13.3335 8.65897 13.3335 10.4998C13.3335 12.3408 11.8411 13.8332 10.0001 13.8332Z" fill="white"/>
<path d="M16.5382 5.16202C16.5382 5.82471 16.0009 6.36197 15.3382 6.36197C14.6754 6.36197 14.1381 5.82471 14.1381 5.16202C14.1381 4.49918 14.6754 3.96191 15.3382 3.96191C16.0009 3.96191 16.5382 4.49918 16.5382 5.16202Z" fill="white"/>
</g>
<defs>
<clipPath id="clip0_361_113">
<rect width="20" height="20" fill="white" transform="translate(0.000244141 0.5)"/>
</clipPath>
</defs>
</svg>
