<svg width="100" height="149" viewBox="0 0 100 149" fill="none" xmlns="http://www.w3.org/2000/svg">
<path d="M34.7932 119.437C34.7932 119.437 6.91382 123.667 6.91382 130.435C6.91382 138.049 37.3273 142.279 49.9998 142.279C67.4487 142.279 93.0866 137.203 93.0866 130.435C93.0866 123.667 65.2072 119.437 65.2072 119.437L68.5865 114.362C68.5865 114.362 99 116.873 99 130.435C99 142.279 70.2757 148.201 49.9998 148.201C37.3273 148.201 1.00001 144.817 1 130.435C0.999989 117.278 30.5691 114.362 30.5691 114.362L34.7932 119.437Z" fill="#1B1B1B"/>
<path fill-rule="evenodd" clip-rule="evenodd" d="M49.9998 1C75.6621 1 97.7798 21.8655 96.4655 47.529C94.7758 80.5222 49.9998 137.203 49.9998 137.203C49.9998 137.203 3.53431 77.1383 3.53408 47.529C3.53388 21.8317 24.3375 1 49.9998 1ZM70.2761 44.9914C70.2761 33.7779 61.1981 24.6875 49.9998 24.6875C38.8015 24.6875 29.7234 33.7779 29.7234 44.9914C29.7234 56.205 38.8015 65.2954 49.9998 65.2954C61.1981 65.2954 70.2761 56.205 70.2761 44.9914Z" fill="#1B1B1B"/>
<path d="M34.7932 119.437C34.7932 119.437 6.91382 123.667 6.91382 130.435C6.91382 138.049 37.3273 142.279 49.9998 142.279C67.4487 142.279 93.0866 137.203 93.0866 130.435C93.0866 123.667 65.2072 119.437 65.2072 119.437L68.5865 114.362C68.5865 114.362 99 116.873 99 130.435C99 142.279 70.2757 148.201 49.9998 148.201C37.3273 148.201 1.00001 144.817 1 130.435C0.999989 117.278 30.5691 114.362 30.5691 114.362L34.7932 119.437Z" stroke="black"/>
<path fill-rule="evenodd" clip-rule="evenodd" d="M49.9998 1C75.6621 1 97.7798 21.8655 96.4655 47.529C94.7758 80.5222 49.9998 137.203 49.9998 137.203C49.9998 137.203 3.53431 77.1383 3.53408 47.529C3.53388 21.8317 24.3375 1 49.9998 1ZM70.2761 44.9914C70.2761 33.7779 61.1981 24.6875 49.9998 24.6875C38.8015 24.6875 29.7234 33.7779 29.7234 44.9914C29.7234 56.205 38.8015 65.2954 49.9998 65.2954C61.1981 65.2954 70.2761 56.205 70.2761 44.9914Z" stroke="black"/>
</svg>
