<svg width="22" height="20" viewBox="0 0 22 20" fill="none" xmlns="http://www.w3.org/2000/svg">
<path d="M2.00002 11.8221H4.00002C4.99952 11.8221 4.99952 11.8221 5.00002 12.8486V17.9814C5.00002 19.008 5.00002 19.008 4.00002 19.008H2.00002C1.00005 19.008 0.999519 19.008 1.00002 17.9814C1.00002 17.9814 1.0003 14.9018 1.00002 12.7378C0.999327 7.34431 2.21735 1.03759 10.9998 1.00808C19.8199 0.978449 20.9995 7.42622 20.9995 12.8486C20.9995 14.9018 20.9995 17.9814 20.9995 17.9814C20.9995 19.008 20.9995 19.008 19.9995 19.008H17.9995C16.9995 19.008 16.999 19.008 16.9995 17.9814V12.8486C16.999 11.8221 16.9995 11.8221 17.9995 11.8221H19.9995" stroke="#0F62FE" stroke-width="2" stroke-linecap="round"/>
</svg>
