<svg width="106" height="81" viewBox="0 0 106 81" fill="none" xmlns="http://www.w3.org/2000/svg">
<path d="M71 41H78C82 41 82 41 82 37V6C82 2 82 2 78 2H67C63 2 63 2 63 6V30M71 41H67C62.9998 41 63.0002 41 63 37V30M71 41V33C71 30 71 30 68 30H63" stroke="white" stroke-width="4"/>
<path d="M35.5789 41H28.2105C24 41 24 41 24 37V6C24 2 24 2 28.2105 2H39.7895C44 2 44 2 44 6V30M35.5789 41H39.7895C44.0002 41 43.9998 41 44 37V30M35.5789 41V33C35.5789 30 35.5789 30 38.7368 30H44" stroke="white" stroke-width="4"/>
<path d="M58.3047 43.6406V46.1016C58.3047 47.1693 58.1908 48.0905 57.9629 48.8652C57.735 49.6335 57.4062 50.265 56.9766 50.7598C56.5534 51.248 56.0488 51.6094 55.4629 51.8438C54.877 52.0781 54.2259 52.1953 53.5098 52.1953C52.9368 52.1953 52.403 52.1237 51.9082 51.9805C51.4134 51.8307 50.9674 51.5996 50.5703 51.2871C50.1797 50.9746 49.8411 50.5807 49.5547 50.1055C49.2747 49.6237 49.0599 49.0508 48.9102 48.3867C48.7604 47.7227 48.6855 46.9609 48.6855 46.1016V43.6406C48.6855 42.5729 48.7995 41.6582 49.0273 40.8965C49.2617 40.1283 49.5905 39.5 50.0137 39.0117C50.4434 38.5234 50.9512 38.1654 51.5371 37.9375C52.123 37.7031 52.7741 37.5859 53.4902 37.5859C54.0632 37.5859 54.5938 37.6608 55.082 37.8105C55.5768 37.9538 56.0228 38.1784 56.4199 38.4844C56.8171 38.7904 57.1556 39.1842 57.4355 39.666C57.7155 40.1413 57.9303 40.7109 58.0801 41.375C58.2298 42.0326 58.3047 42.7878 58.3047 43.6406ZM55.4824 46.4727V43.2598C55.4824 42.7454 55.4531 42.2962 55.3945 41.9121C55.3424 41.528 55.2611 41.2025 55.1504 40.9355C55.0397 40.6621 54.903 40.4408 54.7402 40.2715C54.5775 40.1022 54.3919 39.9785 54.1836 39.9004C53.9753 39.8223 53.7441 39.7832 53.4902 39.7832C53.1712 39.7832 52.888 39.8451 52.6406 39.9688C52.3997 40.0924 52.1947 40.291 52.0254 40.5645C51.8561 40.8314 51.7259 41.1895 51.6348 41.6387C51.5501 42.0814 51.5078 42.6217 51.5078 43.2598V46.4727C51.5078 46.987 51.5339 47.4395 51.5859 47.8301C51.6445 48.2207 51.7292 48.556 51.8398 48.8359C51.957 49.1094 52.0938 49.334 52.25 49.5098C52.4128 49.679 52.5983 49.8027 52.8066 49.8809C53.0215 49.959 53.2559 49.998 53.5098 49.998C53.8223 49.998 54.099 49.9362 54.3398 49.8125C54.5872 49.6823 54.7956 49.4805 54.9648 49.207C55.1406 48.9271 55.2708 48.5625 55.3555 48.1133C55.4401 47.6641 55.4824 47.1172 55.4824 46.4727Z" fill="white"/>
<mask id="path-4-outside-1_529_153" maskUnits="userSpaceOnUse" x="0.860856" y="63.0952" width="15.9549" height="17.3715" fill="black">
<rect fill="white" x="0.860856" y="63.0952" width="15.9549" height="17.3715"/>
<path d="M2.75205 68.7284L6.151 67.1075C6.92199 66.7399 7.62915 66.5469 8.27247 66.5287C8.92049 66.5082 9.49304 66.6621 9.9901 66.9906C10.4896 67.3121 10.8986 67.8066 11.2169 68.4742C11.4411 68.9443 11.5498 69.4204 11.5432 69.9025C11.5389 70.3777 11.4232 70.8368 11.1959 71.2798C10.9711 71.7159 10.6433 72.1175 10.2124 72.4845L9.90227 72.8142L6.70782 74.3375L6.16577 73.2371L8.57747 72.0871C9.0664 71.8539 9.43269 71.5754 9.67637 71.2514C9.9178 70.9228 10.0513 70.5735 10.0768 70.2036C10.1024 69.8337 10.0311 69.4724 9.86296 69.1198C9.67465 68.7249 9.43231 68.4164 9.13593 68.1942C8.83956 67.972 8.48637 67.8606 8.07637 67.8599C7.66882 67.8523 7.20414 67.9729 6.68231 68.2217L4.64435 69.1935L9.00916 78.3467L7.64817 78.9957L2.75205 68.7284ZM13.6492 76.1341L8.9335 72.6703L10.3475 71.9873L15.0615 75.3567L15.1019 75.4413L13.6492 76.1341Z"/>
</mask>
<path d="M2.75205 68.7284L6.151 67.1075C6.92199 66.7399 7.62915 66.5469 8.27247 66.5287C8.92049 66.5082 9.49304 66.6621 9.9901 66.9906C10.4896 67.3121 10.8986 67.8066 11.2169 68.4742C11.4411 68.9443 11.5498 69.4204 11.5432 69.9025C11.5389 70.3777 11.4232 70.8368 11.1959 71.2798C10.9711 71.7159 10.6433 72.1175 10.2124 72.4845L9.90227 72.8142L6.70782 74.3375L6.16577 73.2371L8.57747 72.0871C9.0664 71.8539 9.43269 71.5754 9.67637 71.2514C9.9178 70.9228 10.0513 70.5735 10.0768 70.2036C10.1024 69.8337 10.0311 69.4724 9.86296 69.1198C9.67465 68.7249 9.43231 68.4164 9.13593 68.1942C8.83956 67.972 8.48637 67.8606 8.07637 67.8599C7.66882 67.8523 7.20414 67.9729 6.68231 68.2217L4.64435 69.1935L9.00916 78.3467L7.64817 78.9957L2.75205 68.7284ZM13.6492 76.1341L8.9335 72.6703L10.3475 71.9873L15.0615 75.3567L15.1019 75.4413L13.6492 76.1341Z" fill="white"/>
<path d="M2.75205 68.7284L2.32162 67.8257L1.419 68.2562L1.84942 69.1588L2.75205 68.7284ZM8.27247 66.5287L8.30085 67.5283L8.3041 67.5282L8.27247 66.5287ZM9.9901 66.9906L9.43877 67.8249L9.44889 67.8315L9.9901 66.9906ZM11.5432 69.9025L10.5432 69.8887L10.5432 69.8936L11.5432 69.9025ZM11.1959 71.2798L12.0848 71.738L12.0857 71.7363L11.1959 71.2798ZM10.2124 72.4845L9.56398 71.7233L9.52196 71.7591L9.48413 71.7993L10.2124 72.4845ZM9.90227 72.8142L10.3327 73.7168L10.502 73.6361L10.6306 73.4994L9.90227 72.8142ZM6.70782 74.3375L5.81075 74.7794L6.24705 75.6651L7.13825 75.2401L6.70782 74.3375ZM6.16577 73.2371L5.73534 72.3345L4.82115 72.7704L5.2687 73.679L6.16577 73.2371ZM9.67637 71.2514L10.4756 71.8526L10.4823 71.8435L9.67637 71.2514ZM8.07637 67.8599L8.05769 68.8597L8.06621 68.8599L8.07473 68.8599L8.07637 67.8599ZM4.64435 69.1935L4.21392 68.2909L3.31129 68.7214L3.74172 69.624L4.64435 69.1935ZM9.00916 78.3467L9.43958 79.2494L10.3422 78.8189L9.91178 77.9163L9.00916 78.3467ZM7.64817 78.9957L6.74554 79.4262L7.17597 80.3288L8.07859 79.8984L7.64817 78.9957ZM13.6492 76.1341L13.0572 76.94L13.5395 77.2943L14.0796 77.0367L13.6492 76.1341ZM8.9335 72.6703L8.49858 71.7698L7.00224 72.4925L8.34151 73.4763L8.9335 72.6703ZM10.3475 71.9873L10.929 71.1738L10.4466 70.829L9.91262 71.0869L10.3475 71.9873ZM15.0615 75.3567L15.9641 74.9263L15.853 74.6933L15.643 74.5432L15.0615 75.3567ZM15.1019 75.4413L15.5323 76.344L16.4349 75.9135L16.0045 75.0109L15.1019 75.4413ZM3.18248 69.631L6.58142 68.0102L5.72057 66.2049L2.32162 67.8257L3.18248 69.631ZM6.58142 68.0102C7.26573 67.6838 7.83446 67.5415 8.30085 67.5283L8.24409 65.5291C7.42384 65.5524 6.57825 65.7959 5.72057 66.2049L6.58142 68.0102ZM8.3041 67.5282C8.76459 67.5136 9.12964 67.6206 9.43881 67.8249L10.5414 66.1563C9.85643 65.7037 9.0764 65.5027 8.24084 65.5292L8.3041 67.5282ZM9.44889 67.8315C9.75798 68.0304 10.0564 68.3639 10.3143 68.9046L12.1195 68.0437C11.7407 67.2494 11.2213 66.5938 10.5313 66.1497L9.44889 67.8315ZM10.3143 68.9046C10.4777 69.2474 10.5476 69.5722 10.5433 69.8887L12.5431 69.9164C12.552 69.2686 12.4044 68.6412 12.1195 68.0437L10.3143 68.9046ZM10.5432 69.8936C10.5404 70.2056 10.4659 70.5121 10.3062 70.8234L12.0857 71.7363C12.3805 71.1615 12.5374 70.5498 12.5431 69.9114L10.5432 69.8936ZM10.3071 70.8216C10.1504 71.1257 9.9108 71.4278 9.56398 71.7233L10.8609 73.2458C11.3758 72.8072 11.7919 72.3062 12.0848 71.738L10.3071 70.8216ZM9.48413 71.7993L9.17396 72.129L10.6306 73.4994L10.9408 73.1698L9.48413 71.7993ZM9.47184 71.9116L6.2774 73.4349L7.13825 75.2401L10.3327 73.7168L9.47184 71.9116ZM7.60489 73.8956L7.06284 72.7952L5.2687 73.679L5.81075 74.7794L7.60489 73.8956ZM6.5962 74.1397L9.0079 72.9897L8.14705 71.1844L5.73534 72.3345L6.5962 74.1397ZM9.0079 72.9897C9.59536 72.7096 10.108 72.3412 10.4755 71.8526L8.87724 70.6503C8.7574 70.8096 8.53743 70.9983 8.14705 71.1844L9.0079 72.9897ZM10.4823 71.8435C10.8243 71.378 11.0346 70.8501 11.0745 70.2725L9.07922 70.1347C9.06801 70.297 9.01132 70.4677 8.87048 70.6594L10.4823 71.8435ZM11.0745 70.2725C11.1125 69.7214 11.0038 69.1888 10.7656 68.6894L8.96034 69.5502C9.05844 69.756 9.09226 69.9459 9.07922 70.1347L11.0745 70.2725ZM10.7656 68.6894C10.5203 68.175 10.183 67.7293 9.73579 67.3941L8.53608 68.9943C8.68163 69.1034 8.82902 69.2749 8.96034 69.5502L10.7656 68.6894ZM9.73579 67.3941C9.24832 67.0286 8.67947 66.8609 8.07801 66.8599L8.07473 68.8599C8.29327 68.8602 8.4308 68.9154 8.53608 68.9943L9.73579 67.3941ZM8.09505 66.8601C7.48123 66.8486 6.85902 67.0296 6.25188 67.3191L7.11273 69.1243C7.54925 68.9162 7.85642 68.8559 8.05769 68.8597L8.09505 66.8601ZM6.25188 67.3191L4.21392 68.2909L5.07478 70.0962L7.11273 69.1243L6.25188 67.3191ZM3.74172 69.624L8.10653 78.7772L9.91178 77.9163L5.54697 68.7631L3.74172 69.624ZM8.57873 77.4441L7.21774 78.0931L8.07859 79.8984L9.43958 79.2494L8.57873 77.4441ZM8.55079 78.5653L3.65467 68.2979L1.84942 69.1588L6.74554 79.4262L8.55079 78.5653ZM14.2412 75.3281L9.52548 71.8644L8.34151 73.4763L13.0572 76.94L14.2412 75.3281ZM9.36841 73.5708L10.7824 72.8878L9.91262 71.0869L8.49858 71.7698L9.36841 73.5708ZM9.76604 72.8009L14.48 76.1703L15.643 74.5432L10.929 71.1738L9.76604 72.8009ZM14.1589 75.7871L14.1992 75.8718L16.0045 75.0109L15.9641 74.9263L14.1589 75.7871ZM14.6714 74.5387L13.2188 75.2314L14.0796 77.0367L15.5323 76.344L14.6714 74.5387Z" fill="white" mask="url(#path-4-outside-1_529_153)"/>
<mask id="path-6-outside-2_529_153" maskUnits="userSpaceOnUse" x="11.0591" y="59.6814" width="14.1475" height="16.558" fill="black">
<rect fill="white" x="11.0591" y="59.6814" width="14.1475" height="16.558"/>
<path d="M23.0857 71.252L23.5008 72.4062L17.8327 74.4444L17.4176 73.2902L23.0857 71.252ZM14.2703 63.6374L18.1194 74.3413L16.7006 74.8516L12.8514 64.1476L14.2703 63.6374ZM20.5567 66.574L20.9718 67.7282L16.0535 69.4968L15.6385 68.3426L20.5567 66.574ZM19.5781 61.7287L19.9958 62.8902L14.4012 64.902L13.9835 63.7405L19.5781 61.7287Z"/>
</mask>
<path d="M23.0857 71.252L23.5008 72.4062L17.8327 74.4444L17.4176 73.2902L23.0857 71.252ZM14.2703 63.6374L18.1194 74.3413L16.7006 74.8516L12.8514 64.1476L14.2703 63.6374ZM20.5567 66.574L20.9718 67.7282L16.0535 69.4968L15.6385 68.3426L20.5567 66.574ZM19.5781 61.7287L19.9958 62.8902L14.4012 64.902L13.9835 63.7405L19.5781 61.7287Z" fill="white"/>
<path d="M23.0857 71.252L24.0268 70.9136L23.6884 69.9726L22.7474 70.311L23.0857 71.252ZM23.5008 72.4062L23.8392 73.3472L24.7802 73.0088L24.4418 72.0678L23.5008 72.4062ZM17.8327 74.4444L16.8917 74.7828L17.2301 75.7238L18.1711 75.3854L17.8327 74.4444ZM17.4176 73.2902L17.0793 72.3492L16.1383 72.6876L16.4766 73.6286L17.4176 73.2902ZM14.2703 63.6374L15.2113 63.299L14.8729 62.358L13.9319 62.6964L14.2703 63.6374ZM18.1194 74.3413L18.4578 75.2823L19.3988 74.944L19.0604 74.0029L18.1194 74.3413ZM16.7006 74.8516L15.7595 75.1899L16.0979 76.131L17.0389 75.7926L16.7006 74.8516ZM12.8514 64.1476L12.513 63.2066L11.572 63.545L11.9104 64.486L12.8514 64.1476ZM20.5567 66.574L21.4977 66.2356L21.1593 65.2946L20.2183 65.633L20.5567 66.574ZM20.9718 67.7282L21.3101 68.6692L22.2512 68.3308L21.9128 67.3898L20.9718 67.7282ZM16.0535 69.4968L15.1125 69.8352L15.4509 70.7762L16.3919 70.4378L16.0535 69.4968ZM15.6385 68.3426L15.3001 67.4016L14.3591 67.74L14.6975 68.681L15.6385 68.3426ZM19.5781 61.7287L20.5191 61.3903L20.1808 60.4493L19.2397 60.7877L19.5781 61.7287ZM19.9958 62.8902L20.3342 63.8312L21.2752 63.4928L20.9368 62.5518L19.9958 62.8902ZM14.4012 64.902L13.4602 65.2404L13.7986 66.1814L14.7396 65.843L14.4012 64.902ZM13.9835 63.7405L13.6452 62.7995L12.7042 63.1379L13.0425 64.0789L13.9835 63.7405ZM22.1447 71.5904L22.5598 72.7446L24.4418 72.0678L24.0268 70.9136L22.1447 71.5904ZM23.1624 71.4652L17.4943 73.5034L18.1711 75.3854L23.8392 73.3472L23.1624 71.4652ZM18.7737 74.106L18.3587 72.9518L16.4766 73.6286L16.8917 74.7828L18.7737 74.106ZM17.756 74.2312L23.4241 72.193L22.7474 70.311L17.0793 72.3492L17.756 74.2312ZM13.3293 63.9758L17.1784 74.6797L19.0604 74.0029L15.2113 63.299L13.3293 63.9758ZM17.781 73.4003L16.3622 73.9105L17.0389 75.7926L18.4578 75.2823L17.781 73.4003ZM17.6416 74.5132L13.7924 63.8092L11.9104 64.486L15.7595 75.1899L17.6416 74.5132ZM13.1898 65.0886L14.6086 64.5784L13.9319 62.6964L12.513 63.2066L13.1898 65.0886ZM19.6157 66.9124L20.0308 68.0666L21.9128 67.3898L21.4977 66.2356L19.6157 66.9124ZM20.6334 66.7872L15.7151 68.5558L16.3919 70.4378L21.3101 68.6692L20.6334 66.7872ZM16.9945 69.1584L16.5795 68.0042L14.6975 68.681L15.1125 69.8352L16.9945 69.1584ZM15.9769 69.2836L20.8951 67.515L20.2183 65.633L15.3001 67.4016L15.9769 69.2836ZM18.6371 62.067L19.0548 63.2286L20.9368 62.5518L20.5191 61.3903L18.6371 62.067ZM19.6574 61.9492L14.0629 63.961L14.7396 65.843L20.3342 63.8312L19.6574 61.9492ZM15.3423 64.5636L14.9246 63.4021L13.0425 64.0789L13.4602 65.2404L15.3423 64.5636ZM14.3219 64.6815L19.9165 62.6697L19.2397 60.7877L13.6452 62.7995L14.3219 64.6815Z" fill="white" mask="url(#path-6-outside-2_529_153)"/>
<mask id="path-8-outside-3_529_153" maskUnits="userSpaceOnUse" x="19.9605" y="57.1284" width="14.3377" height="17.2366" fill="black">
<rect fill="white" x="19.9605" y="57.1284" width="14.3377" height="17.2366"/>
<path d="M30.5671 67.586C30.5021 67.3285 30.4043 67.1114 30.2738 66.9349C30.147 66.752 29.9648 66.6047 29.727 66.4928C29.4943 66.3797 29.1878 66.2932 28.8074 66.2335C28.4321 66.1725 27.9653 66.1319 27.4069 66.1118C26.8207 66.0879 26.2831 66.0329 25.794 65.9469C25.3037 65.8559 24.8694 65.7211 24.4913 65.5426C24.1132 65.3641 23.7987 65.1293 23.5479 64.8381C23.2971 64.5469 23.1175 64.1867 23.0091 63.7574C22.9007 63.3282 22.889 62.9095 22.9739 62.5013C23.0589 62.093 23.2317 61.7137 23.4923 61.3631C23.7567 61.0063 24.0996 60.6941 24.5209 60.4266C24.9422 60.159 25.4356 59.9538 26.0012 59.811C26.8293 59.6019 27.5714 59.5837 28.2274 59.7565C28.8872 59.9229 29.433 60.2229 29.8648 60.6565C30.2953 61.0849 30.5832 61.587 30.7286 62.1627L29.2743 62.5299C29.1697 62.1158 28.9889 61.772 28.7318 61.4985C28.4734 61.22 28.142 61.0351 27.7376 60.9438C27.3319 60.8475 26.8538 60.8688 26.3034 61.0078C25.7833 61.1392 25.3738 61.3258 25.075 61.5678C24.7762 61.8098 24.5772 62.0857 24.4782 62.3954C24.3842 62.7038 24.3805 63.0297 24.4672 63.3731C24.5259 63.6054 24.6274 63.8054 24.7718 63.9731C24.92 64.1344 25.118 64.2697 25.3658 64.379C25.6187 64.4871 25.924 64.5685 26.2816 64.6232C26.6443 64.6767 27.0688 64.7091 27.5552 64.7206C28.226 64.7392 28.816 64.7997 29.3254 64.9021C29.8347 65.0045 30.2702 65.155 30.6319 65.3538C30.9975 65.5462 31.2943 65.7962 31.5224 66.1039C31.7543 66.4053 31.9244 66.7706 32.0328 67.1998C32.1463 67.6492 32.158 68.0787 32.0681 68.4882C31.9781 68.8977 31.7964 69.2739 31.5231 69.6169C31.2498 69.9599 30.8937 70.262 30.4547 70.5233C30.0195 70.7782 29.5115 70.979 28.9308 71.1256C28.4208 71.2544 27.9005 71.3106 27.3699 71.2942C26.8443 71.2765 26.3439 71.1772 25.8685 70.9964C25.3981 70.8144 24.9895 70.5469 24.6425 70.194C24.2993 69.8348 24.0583 69.38 23.9193 68.8296L25.3736 68.4623C25.4693 68.8411 25.6247 69.1483 25.84 69.384C26.0541 69.6147 26.3096 69.7865 26.6067 69.8995C26.9089 70.0112 27.2324 70.0692 27.5773 70.0734C27.9259 70.0713 28.277 70.0256 28.6305 69.9364C29.1405 69.8076 29.5544 69.6279 29.8722 69.3972C30.19 69.1666 30.4066 68.897 30.5221 68.5885C30.6427 68.2787 30.6577 67.9446 30.5671 67.586Z"/>
</mask>
<path d="M30.5671 67.586C30.5021 67.3285 30.4043 67.1114 30.2738 66.9349C30.147 66.752 29.9648 66.6047 29.727 66.4928C29.4943 66.3797 29.1878 66.2932 28.8074 66.2335C28.4321 66.1725 27.9653 66.1319 27.4069 66.1118C26.8207 66.0879 26.2831 66.0329 25.794 65.9469C25.3037 65.8559 24.8694 65.7211 24.4913 65.5426C24.1132 65.3641 23.7987 65.1293 23.5479 64.8381C23.2971 64.5469 23.1175 64.1867 23.0091 63.7574C22.9007 63.3282 22.889 62.9095 22.9739 62.5013C23.0589 62.093 23.2317 61.7137 23.4923 61.3631C23.7567 61.0063 24.0996 60.6941 24.5209 60.4266C24.9422 60.159 25.4356 59.9538 26.0012 59.811C26.8293 59.6019 27.5714 59.5837 28.2274 59.7565C28.8872 59.9229 29.433 60.2229 29.8648 60.6565C30.2953 61.0849 30.5832 61.587 30.7286 62.1627L29.2743 62.5299C29.1697 62.1158 28.9889 61.772 28.7318 61.4985C28.4734 61.22 28.142 61.0351 27.7376 60.9438C27.3319 60.8475 26.8538 60.8688 26.3034 61.0078C25.7833 61.1392 25.3738 61.3258 25.075 61.5678C24.7762 61.8098 24.5772 62.0857 24.4782 62.3954C24.3842 62.7038 24.3805 63.0297 24.4672 63.3731C24.5259 63.6054 24.6274 63.8054 24.7718 63.9731C24.92 64.1344 25.118 64.2697 25.3658 64.379C25.6187 64.4871 25.924 64.5685 26.2816 64.6232C26.6443 64.6767 27.0688 64.7091 27.5552 64.7206C28.226 64.7392 28.816 64.7997 29.3254 64.9021C29.8347 65.0045 30.2702 65.155 30.6319 65.3538C30.9975 65.5462 31.2943 65.7962 31.5224 66.1039C31.7543 66.4053 31.9244 66.7706 32.0328 67.1998C32.1463 67.6492 32.158 68.0787 32.0681 68.4882C31.9781 68.8977 31.7964 69.2739 31.5231 69.6169C31.2498 69.9599 30.8937 70.262 30.4547 70.5233C30.0195 70.7782 29.5115 70.979 28.9308 71.1256C28.4208 71.2544 27.9005 71.3106 27.3699 71.2942C26.8443 71.2765 26.3439 71.1772 25.8685 70.9964C25.3981 70.8144 24.9895 70.5469 24.6425 70.194C24.2993 69.8348 24.0583 69.38 23.9193 68.8296L25.3736 68.4623C25.4693 68.8411 25.6247 69.1483 25.84 69.384C26.0541 69.6147 26.3096 69.7865 26.6067 69.8995C26.9089 70.0112 27.2324 70.0692 27.5773 70.0734C27.9259 70.0713 28.277 70.0256 28.6305 69.9364C29.1405 69.8076 29.5544 69.6279 29.8722 69.3972C30.19 69.1666 30.4066 68.897 30.5221 68.5885C30.6427 68.2787 30.6577 67.9446 30.5671 67.586Z" fill="white"/>
<path d="M30.2738 66.9349L29.4519 67.5046L29.4606 67.5171L29.4697 67.5294L30.2738 66.9349ZM29.727 66.4928L29.2897 67.3922L29.3013 67.3977L29.727 66.4928ZM28.8074 66.2335L28.647 67.2206L28.6523 67.2214L28.8074 66.2335ZM27.4069 66.1118L27.3662 67.1109L27.3708 67.1111L27.4069 66.1118ZM25.794 65.9469L25.6114 66.9302L25.6208 66.9318L25.794 65.9469ZM23.4923 61.3631L24.2948 61.9599L24.2958 61.9585L23.4923 61.3631ZM28.2274 59.7565L27.9728 60.7236L27.9828 60.7261L28.2274 59.7565ZM29.8648 60.6565L29.1563 61.3621L29.1594 61.3652L29.8648 60.6565ZM30.7286 62.1627L30.9734 63.1322L31.943 62.8874L31.6982 61.9178L30.7286 62.1627ZM29.2743 62.5299L28.3047 62.7748L28.5495 63.7443L29.5191 63.4995L29.2743 62.5299ZM28.7318 61.4985L27.9986 62.1786L28.0031 62.1834L28.7318 61.4985ZM27.7376 60.9438L27.5066 61.9168L27.5175 61.9193L27.7376 60.9438ZM24.4782 62.3954L23.5256 62.0907L23.5216 62.1038L24.4782 62.3954ZM24.7718 63.9731L24.0141 64.6256L24.0245 64.6377L24.0353 64.6495L24.7718 63.9731ZM25.3658 64.379L24.9623 65.2941L24.973 65.2986L25.3658 64.379ZM26.2816 64.6232L26.1303 65.6117L26.1358 65.6125L26.2816 64.6232ZM27.5552 64.7206L27.5829 63.721L27.5788 63.7209L27.5552 64.7206ZM30.6319 65.3538L30.1505 66.2302L30.1583 66.2345L30.1662 66.2387L30.6319 65.3538ZM31.5224 66.1039L30.7191 66.6995L30.7244 66.7066L30.7299 66.7137L31.5224 66.1039ZM31.5231 69.6169L30.7411 68.9937L31.5231 69.6169ZM30.4547 70.5233L30.9602 71.3861L30.9661 71.3826L30.4547 70.5233ZM27.3699 71.2942L27.3362 72.2936L27.3389 72.2937L27.3699 71.2942ZM25.8685 70.9964L25.5075 71.929L25.513 71.9311L25.8685 70.9964ZM24.6425 70.194L23.9195 70.8848L23.9244 70.89L23.9295 70.8951L24.6425 70.194ZM23.9193 68.8296L23.6744 67.86L22.7049 68.1049L22.9497 69.0744L23.9193 68.8296ZM25.3736 68.4623L26.3432 68.2175L26.0983 67.248L25.1288 67.4928L25.3736 68.4623ZM25.84 69.384L25.1017 70.0585L25.107 70.0642L25.84 69.384ZM26.6067 69.8995L26.2513 70.8342L26.26 70.8374L26.6067 69.8995ZM27.5773 70.0734L27.565 71.0733L27.5742 71.0734L27.5833 71.0734L27.5773 70.0734ZM30.5221 68.5885L29.5901 68.2258L29.5856 68.2379L30.5221 68.5885ZM31.5367 67.3412C31.4463 66.9833 31.3002 66.6411 31.0779 66.3404L29.4697 67.5294C29.5084 67.5818 29.5579 67.6737 29.5976 67.8309L31.5367 67.3412ZM31.0956 66.3652C30.8518 66.0135 30.5208 65.7611 30.1528 65.588L29.3013 67.3977C29.4088 67.4482 29.4422 67.4906 29.4519 67.5046L31.0956 66.3652ZM30.1643 65.5935C29.8104 65.4214 29.398 65.314 28.9626 65.2456L28.6523 67.2214C28.9776 67.2725 29.1783 67.3379 29.2898 67.3921L30.1643 65.5935ZM28.9679 65.2465C28.5372 65.1764 28.0256 65.1334 27.4429 65.1124L27.3708 67.1111C27.9049 67.1304 28.327 67.1685 28.647 67.2205L28.9679 65.2465ZM27.4476 65.1126C26.8981 65.0902 26.4055 65.0391 25.9672 64.962L25.6208 66.9318C26.1607 67.0268 26.7433 67.0856 27.3662 67.1109L27.4476 65.1126ZM25.9766 64.9637C25.555 64.8855 25.2054 64.7739 24.9182 64.6383L24.0644 66.4469C24.5335 66.6683 25.0523 66.8263 25.6114 66.9301L25.9766 64.9637ZM24.9182 64.6383C24.6555 64.5143 24.4572 64.3615 24.3056 64.1855L22.7902 65.4907C23.1402 65.8971 23.5709 66.214 24.0644 66.4469L24.9182 64.6383ZM24.3056 64.1855C24.1705 64.0286 24.0549 63.8142 23.9787 63.5126L22.0396 64.0023C22.1802 64.5591 22.4237 65.0652 22.7902 65.4907L24.3056 64.1855ZM23.9787 63.5126C23.905 63.2209 23.9008 62.9558 23.953 62.7049L21.9949 62.2976C21.8772 62.8632 21.8964 63.4354 22.0396 64.0023L23.9787 63.5126ZM23.953 62.7049C24.0069 62.4458 24.1166 62.1994 24.2948 61.9599L22.6899 60.7664C22.3467 61.2279 22.1108 61.7403 21.9949 62.2976L23.953 62.7049ZM24.2958 61.9585C24.4786 61.7117 24.7266 61.4805 25.057 61.2707L23.9848 59.5824C23.4726 59.9077 23.0349 60.3008 22.6889 60.7678L24.2958 61.9585ZM25.057 61.2707C25.3748 61.0689 25.7665 60.9017 26.246 60.7806L25.7563 58.8415C25.1046 59.006 24.5096 59.2491 23.9848 59.5824L25.057 61.2707ZM26.246 60.7806C26.9519 60.6024 27.5175 60.6036 27.9728 60.7235L28.4821 58.7895C27.6254 58.5638 26.7068 58.6015 25.7563 58.8415L26.246 60.7806ZM27.9828 60.7261C28.4872 60.8533 28.8663 61.071 29.1563 61.3621L30.5733 59.9508C29.9997 59.3748 29.2873 58.9925 28.4721 58.7869L27.9828 60.7261ZM29.1594 61.3652C29.4645 61.6689 29.6591 62.0118 29.759 62.4075L31.6982 61.9178C31.5074 61.1622 31.1261 60.5009 30.5702 59.9477L29.1594 61.3652ZM30.4838 61.1931L29.0294 61.5604L29.5191 63.4995L30.9734 63.1322L30.4838 61.1931ZM30.2438 62.2851C30.1035 61.7293 29.8492 61.2272 29.4605 60.8137L28.0031 62.1834C28.1286 62.3169 28.2359 62.5024 28.3047 62.7748L30.2438 62.2851ZM29.465 60.8185C29.0568 60.3784 28.5403 60.0998 27.9577 59.9683L27.5175 61.9193C27.7438 61.9704 27.8901 62.0616 27.9986 62.1786L29.465 60.8185ZM27.9686 59.9708C27.3601 59.8264 26.7113 59.8734 26.0586 60.0383L26.5482 61.9774C26.9963 61.8643 27.3037 61.8686 27.5066 61.9168L27.9686 59.9708ZM26.0586 60.0383C25.4498 60.192 24.8925 60.4288 24.4456 60.7907L25.7043 62.345C25.8551 62.2229 26.1167 62.0864 26.5482 61.9774L26.0586 60.0383ZM24.4456 60.7907C24.0235 61.1325 23.6943 61.5637 23.5257 62.0907L25.4306 62.7C25.4602 62.6076 25.5288 62.4871 25.7043 62.345L24.4456 60.7907ZM23.5216 62.1038C23.3693 62.6034 23.3709 63.1159 23.4977 63.618L25.4368 63.1283C25.3902 62.9436 25.399 62.8042 25.4347 62.6869L23.5216 62.1038ZM23.4977 63.618C23.5911 63.9881 23.7602 64.3308 24.0141 64.6256L25.5295 63.3205C25.4946 63.28 25.4606 63.2228 25.4368 63.1283L23.4977 63.618ZM24.0353 64.6495C24.2961 64.9335 24.6172 65.1418 24.9623 65.294L25.7694 63.4641C25.6188 63.3976 25.5438 63.3353 25.5083 63.2966L24.0353 64.6495ZM24.973 65.2986C25.3231 65.4482 25.7141 65.548 26.1303 65.6117L26.4329 63.6347C26.1339 63.5889 25.9144 63.526 25.7587 63.4594L24.973 65.2986ZM26.1358 65.6125C26.5496 65.6735 27.0166 65.7082 27.5316 65.7203L27.5788 63.7209C27.121 63.7101 26.739 63.6798 26.4275 63.6339L26.1358 65.6125ZM27.5274 65.7202C28.1568 65.7377 28.6881 65.794 29.1283 65.8825L29.5224 63.9217C28.9439 63.8054 28.2951 63.7408 27.5829 63.721L27.5274 65.7202ZM29.1283 65.8825C29.5626 65.9698 29.8972 66.0911 30.1505 66.2302L31.1134 64.4773C30.6432 64.219 30.1067 64.0392 29.5224 63.9217L29.1283 65.8825ZM30.1662 66.2387C30.4095 66.3668 30.5872 66.5216 30.7191 66.6995L32.3257 65.5084C32.0014 65.0708 31.5854 64.7256 31.0977 64.4689L30.1662 66.2387ZM30.7299 66.7137C30.8659 66.8905 30.9829 67.1263 31.0632 67.4446L33.0024 66.955C32.866 66.4148 32.6427 65.9201 32.3149 65.4941L30.7299 66.7137ZM31.0632 67.4446C31.1428 67.7597 31.1446 68.0312 31.0914 68.2736L33.0448 68.7028C33.1714 68.1262 33.1498 67.5388 33.0024 66.955L31.0632 67.4446ZM31.0914 68.2736C31.0357 68.5269 30.9236 68.7646 30.7411 68.9937L32.3052 70.2401C32.6692 69.7832 32.9205 69.2685 33.0448 68.7028L31.0914 68.2736ZM30.7411 68.9937C30.5543 69.2281 30.2953 69.4544 29.9433 69.6639L30.9661 71.3826C31.492 71.0696 31.9454 70.6916 32.3052 70.2401L30.7411 68.9937ZM29.9493 69.6604C29.609 69.8597 29.1918 70.0283 28.686 70.1561L29.1756 72.0952C29.8312 71.9296 30.43 71.6967 30.9601 71.3861L29.9493 69.6604ZM28.686 70.1561C28.2669 70.2619 27.8394 70.3082 27.4008 70.2946L27.3389 72.2937C27.9615 72.313 28.5747 72.2469 29.1756 72.0952L28.686 70.1561ZM27.4035 70.2947C26.9843 70.2806 26.5929 70.202 26.2239 70.0617L25.513 71.9311C26.0949 72.1524 26.7043 72.2723 27.3362 72.2936L27.4035 70.2947ZM26.2294 70.0639C25.889 69.9321 25.601 69.7426 25.3556 69.4929L23.9295 70.8951C24.3779 71.3513 24.9073 71.6967 25.5075 71.929L26.2294 70.0639ZM25.3656 69.5032C25.1579 69.2858 24.9917 68.992 24.8888 68.5848L22.9497 69.0744C23.1249 69.7681 23.4408 70.3838 23.9195 70.8848L25.3656 69.5032ZM24.1641 69.7992L25.6184 69.4319L25.1288 67.4928L23.6744 67.86L24.1641 69.7992ZM24.404 68.7072C24.5312 69.2106 24.7528 69.6764 25.1017 70.0584L26.5784 68.7096C26.4967 68.6202 26.4073 68.4716 26.3432 68.2175L24.404 68.7072ZM25.107 70.0642C25.4267 70.4088 25.8119 70.6671 26.2513 70.8342L26.9622 68.9648C26.8073 68.9059 26.6814 68.8206 26.5731 68.7038L25.107 70.0642ZM26.26 70.8374C26.6766 70.9915 27.114 71.0678 27.565 71.0733L27.5896 69.0735C27.3508 69.0706 27.1412 69.0309 26.9535 68.9615L26.26 70.8374ZM27.5833 71.0734C28.0161 71.0708 28.4473 71.014 28.8753 70.906L28.3857 68.9668C28.1067 69.0373 27.8358 69.0718 27.5713 69.0734L27.5833 71.0734ZM28.8753 70.906C29.4692 70.756 30.0104 70.5326 30.4596 70.2065L29.2848 68.5879C29.0985 68.7232 28.8118 68.8592 28.3857 68.9668L28.8753 70.906ZM30.4596 70.2065C30.9053 69.883 31.262 69.4643 31.4587 68.9391L29.5856 68.2379C29.5512 68.3297 29.4747 68.4501 29.2848 68.5879L30.4596 70.2065ZM31.4541 68.9511C31.6584 68.4261 31.6721 67.8775 31.5367 67.3412L29.5976 67.8309C29.6432 68.0116 29.627 68.1313 29.5902 68.2259L31.4541 68.9511Z" fill="white" mask="url(#path-8-outside-3_529_153)"/>
<mask id="path-10-outside-4_529_153" maskUnits="userSpaceOnUse" x="31.575" y="55.3748" width="13.0282" height="16.4164" fill="black">
<rect fill="white" x="31.575" y="55.3748" width="13.0282" height="16.4164"/>
<path d="M39.5549 57.4358L41.0395 57.2217L42.1378 64.8383C42.2597 65.6837 42.173 66.4145 41.8777 67.0306C41.5825 67.6468 41.1434 68.1416 40.5605 68.5151C39.982 68.8827 39.3294 69.1188 38.6025 69.2237C37.8396 69.3337 37.1287 69.2941 36.47 69.1049C35.8157 68.9098 35.2676 68.5574 34.8257 68.0475C34.389 67.5369 34.1096 66.8589 33.9877 66.0135L32.8895 58.3969L34.3664 58.184L35.4647 65.8005C35.5494 66.3882 35.7275 66.8571 35.999 67.2074C36.2706 67.5576 36.613 67.7977 37.0264 67.9275C37.4449 68.0566 37.912 68.084 38.4275 68.0096C38.9481 67.9346 39.3884 67.7764 39.7482 67.535C40.1133 67.293 40.3765 66.9656 40.538 66.5529C40.6995 66.1402 40.7379 65.64 40.6532 65.0523L39.5549 57.4358Z"/>
</mask>
<path d="M39.5549 57.4358L41.0395 57.2217L42.1378 64.8383C42.2597 65.6837 42.173 66.4145 41.8777 67.0306C41.5825 67.6468 41.1434 68.1416 40.5605 68.5151C39.982 68.8827 39.3294 69.1188 38.6025 69.2237C37.8396 69.3337 37.1287 69.2941 36.47 69.1049C35.8157 68.9098 35.2676 68.5574 34.8257 68.0475C34.389 67.5369 34.1096 66.8589 33.9877 66.0135L32.8895 58.3969L34.3664 58.184L35.4647 65.8005C35.5494 66.3882 35.7275 66.8571 35.999 67.2074C36.2706 67.5576 36.613 67.7977 37.0264 67.9275C37.4449 68.0566 37.912 68.084 38.4275 68.0096C38.9481 67.9346 39.3884 67.7764 39.7482 67.535C40.1133 67.293 40.3765 66.9656 40.538 66.5529C40.6995 66.1402 40.7379 65.64 40.6532 65.0523L39.5549 57.4358Z" fill="white"/>
<path d="M39.5549 57.4358L39.4122 56.446L38.4224 56.5888L38.5651 57.5785L39.5549 57.4358ZM41.0395 57.2217L42.0293 57.079L41.8866 56.0892L40.8968 56.232L41.0395 57.2217ZM40.5605 68.5151L41.0968 69.3591L41.1 69.3571L40.5605 68.5151ZM36.47 69.1049L36.1843 70.0633L36.194 70.0661L36.47 69.1049ZM34.8257 68.0475L34.0657 68.6975L34.07 68.7024L34.8257 68.0475ZM32.8895 58.3969L32.7467 57.4072L31.757 57.5499L31.8997 58.5397L32.8895 58.3969ZM34.3664 58.184L35.3561 58.0413L35.2134 57.0515L34.2237 57.1942L34.3664 58.184ZM37.0264 67.9275L36.7268 68.8816L36.7317 68.8831L37.0264 67.9275ZM39.7482 67.535L39.1956 66.7016L39.1913 66.7045L39.7482 67.535ZM40.538 66.5529L39.6068 66.1885L40.538 66.5529ZM39.6976 58.4256L41.1823 58.2115L40.8968 56.232L39.4122 56.446L39.6976 58.4256ZM40.0498 57.3644L41.1481 64.981L43.1276 64.6955L42.0293 57.079L40.0498 57.3644ZM41.1481 64.981C41.2488 65.6795 41.1664 66.2011 40.976 66.5985L42.7795 67.4628C43.1797 66.6279 43.2707 65.6879 43.1276 64.6955L41.1481 64.981ZM40.976 66.5985C40.7621 67.0447 40.4495 67.3985 40.021 67.6731L41.1 69.3571C41.8372 68.8847 42.4028 68.2489 42.7795 67.4628L40.976 66.5985ZM40.0242 67.6711C39.5735 67.9574 39.0568 68.1478 38.4598 68.2339L38.7452 70.2134C39.602 70.0899 40.3906 69.8079 41.0968 69.3591L40.0242 67.6711ZM38.4598 68.2339C37.8194 68.3262 37.2527 68.2893 36.746 68.1438L36.194 70.0661C37.0047 70.2989 37.8598 70.3411 38.7452 70.2134L38.4598 68.2339ZM36.7557 68.1466C36.2814 68.0052 35.8971 67.7569 35.5814 67.3926L34.07 68.7024C34.6381 69.3579 35.3499 69.8145 36.1843 70.0632L36.7557 68.1466ZM35.5856 67.3975C35.3014 67.0652 35.0797 66.5791 34.9775 65.8708L32.998 66.1562C33.1396 67.1387 33.4766 68.0086 34.0657 68.6975L35.5856 67.3975ZM34.9775 65.8708L33.8792 58.2542L31.8997 58.5397L32.998 66.1562L34.9775 65.8708ZM33.0322 59.3867L34.5091 59.1737L34.2237 57.1942L32.7467 57.4072L33.0322 59.3867ZM33.3766 58.3267L34.4749 65.9432L36.4544 65.6578L35.3561 58.0413L33.3766 58.3267ZM34.4749 65.9432C34.5762 66.6461 34.8012 67.2943 35.2087 67.8201L36.7894 66.5947C36.6539 66.42 36.5225 66.1303 36.4544 65.6578L34.4749 65.9432ZM35.2087 67.8201C35.6021 68.3276 36.1142 68.6892 36.7268 68.8816L37.326 66.9735C37.1119 66.9062 36.939 66.7877 36.7894 66.5947L35.2087 67.8201ZM36.7317 68.8831C37.316 69.0633 37.9355 69.0909 38.5702 68.9994L38.2847 67.0199C37.8884 67.077 37.5739 67.0499 37.3211 66.9719L36.7317 68.8831ZM38.5702 68.9994C39.2079 68.9075 39.7972 68.7063 40.3052 68.3656L39.1913 66.7045C38.9796 66.8465 38.6883 66.9617 38.2847 67.0199L38.5702 68.9994ZM40.3009 68.3684C40.8395 68.0113 41.2338 67.5191 41.4693 66.9173L39.6068 66.1885C39.5193 66.412 39.387 66.5747 39.1956 66.7016L40.3009 68.3684ZM41.4693 66.9173C41.7117 66.2979 41.7443 65.6125 41.6429 64.9096L39.6634 65.1951C39.7315 65.6676 39.6874 65.9825 39.6068 66.1885L41.4693 66.9173ZM41.6429 64.9096L40.5447 57.2931L38.5651 57.5785L39.6634 65.1951L41.6429 64.9096Z" fill="white" mask="url(#path-10-outside-4_529_153)"/>
<mask id="path-12-outside-5_529_153" maskUnits="userSpaceOnUse" x="43.0726" y="54.8696" width="10.7657" height="14.5363" fill="black">
<rect fill="white" x="43.0726" y="54.8696" width="10.7657" height="14.5363"/>
<path d="M51.9355 66.7241L52.004 67.9487L46.3254 68.2661L46.2569 67.0415L51.9355 66.7241ZM45.987 56.8923L46.6218 68.2496L45.1163 68.3337L44.4815 56.9765L45.987 56.8923Z"/>
</mask>
<path d="M51.9355 66.7241L52.004 67.9487L46.3254 68.2661L46.2569 67.0415L51.9355 66.7241ZM45.987 56.8923L46.6218 68.2496L45.1163 68.3337L44.4815 56.9765L45.987 56.8923Z" fill="white"/>
<path d="M51.9355 66.7241L52.934 66.6683L52.8782 65.6698L51.8797 65.7257L51.9355 66.7241ZM52.004 67.9487L52.0598 68.9472L53.0582 68.8914L53.0024 67.8929L52.004 67.9487ZM46.3254 68.2661L45.3269 68.322L45.3827 69.3204L46.3812 69.2646L46.3254 68.2661ZM46.2569 67.0415L46.2011 66.0431L45.2027 66.0989L45.2585 67.0973L46.2569 67.0415ZM45.987 56.8923L46.9854 56.8365L46.9296 55.8381L45.9311 55.8939L45.987 56.8923ZM46.6218 68.2496L46.6776 69.248L47.676 69.1922L47.6202 68.1938L46.6218 68.2496ZM45.1163 68.3337L44.1179 68.3895L44.1737 69.388L45.1721 69.3322L45.1163 68.3337ZM44.4815 56.9765L44.4257 55.978L43.4272 56.0338L43.4831 57.0323L44.4815 56.9765ZM50.9371 66.7799L51.0055 68.0046L53.0024 67.8929L52.934 66.6683L50.9371 66.7799ZM51.9482 66.9503L46.2695 67.2677L46.3812 69.2646L52.0598 68.9472L51.9482 66.9503ZM47.3238 68.2103L47.2553 66.9857L45.2585 67.0973L45.3269 68.322L47.3238 68.2103ZM46.3127 68.0399L51.9913 67.7225L51.8797 65.7257L46.2011 66.0431L46.3127 68.0399ZM44.9885 56.9481L45.6233 68.3054L47.6202 68.1938L46.9854 56.8365L44.9885 56.9481ZM46.566 67.2511L45.0605 67.3353L45.1721 69.3322L46.6776 69.248L46.566 67.2511ZM46.1147 68.2779L45.4799 56.9206L43.4831 57.0323L44.1179 68.3895L46.1147 68.2779ZM44.5373 57.9749L46.0428 57.8907L45.9311 55.8939L44.4257 55.978L44.5373 57.9749Z" fill="white" mask="url(#path-12-outside-5_529_153)"/>
<mask id="path-14-outside-6_529_153" maskUnits="userSpaceOnUse" x="49.3642" y="54.9759" width="12.3264" height="14.2787" fill="black">
<rect fill="white" x="49.3642" y="54.9759" width="12.3264" height="14.2787"/>
<path d="M56.1773 56.7541L55.9093 68.1259L54.4254 68.091L54.6933 56.7191L56.1773 56.7541ZM59.8325 56.8402L59.8034 58.0742L51.0168 57.8672L51.0459 56.6332L59.8325 56.8402Z"/>
</mask>
<path d="M56.1773 56.7541L55.9093 68.1259L54.4254 68.091L54.6933 56.7191L56.1773 56.7541ZM59.8325 56.8402L59.8034 58.0742L51.0168 57.8672L51.0459 56.6332L59.8325 56.8402Z" fill="white"/>
<path d="M56.1773 56.7541L57.177 56.7776L57.2005 55.7779L56.2008 55.7544L56.1773 56.7541ZM55.9093 68.1259L55.8858 69.1257L56.8855 69.1492L56.9091 68.1495L55.9093 68.1259ZM54.4254 68.091L53.4257 68.0674L53.4021 69.0671L54.4018 69.0907L54.4254 68.091ZM54.6933 56.7191L54.7168 55.7194L53.7171 55.6958L53.6936 56.6956L54.6933 56.7191ZM59.8325 56.8402L60.8322 56.8637L60.8558 55.864L59.856 55.8405L59.8325 56.8402ZM59.8034 58.0742L59.7799 59.074L60.7796 59.0975L60.8031 58.0978L59.8034 58.0742ZM51.0168 57.8672L50.0171 57.8437L49.9935 58.8434L50.9932 58.8669L51.0168 57.8672ZM51.0459 56.6332L51.0694 55.6335L50.0697 55.6099L50.0461 56.6096L51.0459 56.6332ZM55.1775 56.7305L54.9096 68.1024L56.9091 68.1495L57.177 56.7776L55.1775 56.7305ZM55.9329 67.1262L54.4489 67.0912L54.4018 69.0907L55.8858 69.1257L55.9329 67.1262ZM55.4251 68.1145L55.693 56.7427L53.6936 56.6956L53.4257 68.0674L55.4251 68.1145ZM54.6697 57.7188L56.1537 57.7538L56.2008 55.7544L54.7168 55.7194L54.6697 57.7188ZM58.8328 56.8166L58.8037 58.0507L60.8031 58.0978L60.8322 56.8637L58.8328 56.8166ZM59.827 57.0745L51.0403 56.8675L50.9932 58.8669L59.7799 59.074L59.827 57.0745ZM52.0165 57.8908L52.0456 56.6567L50.0461 56.6096L50.0171 57.8437L52.0165 57.8908ZM51.0223 57.6329L59.8089 57.8399L59.856 55.8405L51.0694 55.6335L51.0223 57.6329Z" fill="white" mask="url(#path-14-outside-6_529_153)"/>
<mask id="path-16-outside-7_529_153" maskUnits="userSpaceOnUse" x="57.3251" y="55.0282" width="15.6202" height="15.6202" fill="black">
<rect fill="white" x="57.3251" y="55.0282" width="15.6202" height="15.6202"/>
<path d="M66.2012 58.5699L61.1854 68.3934L59.6581 68.2035L65.3641 57.4503L66.3488 57.5727L66.2012 58.5699ZM68.0544 69.2473L65.5887 58.4938L65.6898 57.4908L66.6744 57.6132L69.5894 69.4381L68.0544 69.2473ZM68.38 65.0444L68.2277 66.2694L61.8859 65.481L62.0382 64.2561L68.38 65.0444Z"/>
</mask>
<path d="M66.2012 58.5699L61.1854 68.3934L59.6581 68.2035L65.3641 57.4503L66.3488 57.5727L66.2012 58.5699ZM68.0544 69.2473L65.5887 58.4938L65.6898 57.4908L66.6744 57.6132L69.5894 69.4381L68.0544 69.2473ZM68.38 65.0444L68.2277 66.2694L61.8859 65.481L62.0382 64.2561L68.38 65.0444Z" fill="white"/>
<path d="M66.2012 58.5699L67.0918 59.0247L67.1664 58.8786L67.1904 58.7164L66.2012 58.5699ZM61.1854 68.3934L61.062 69.3858L61.7573 69.4722L62.076 68.8481L61.1854 68.3934ZM59.6581 68.2035L58.7747 67.7348L58.0944 69.0168L59.5347 69.1959L59.6581 68.2035ZM65.3641 57.4503L65.4875 56.458L64.8038 56.373L64.4808 56.9816L65.3641 57.4503ZM66.3488 57.5727L67.338 57.7191L67.4878 56.7066L66.4721 56.5804L66.3488 57.5727ZM68.0544 69.2473L67.0797 69.4708L67.2361 70.1533L67.931 70.2397L68.0544 69.2473ZM65.5887 58.4938L64.5937 58.3935L64.5773 58.5571L64.614 58.7173L65.5887 58.4938ZM65.6898 57.4908L65.8131 56.4984L64.7974 56.3722L64.6948 57.3905L65.6898 57.4908ZM66.6744 57.6132L67.6453 57.3739L67.4806 56.7057L66.7977 56.6208L66.6744 57.6132ZM69.5894 69.4381L69.4661 70.4305L70.9082 70.6098L70.5604 69.1988L69.5894 69.4381ZM68.38 65.0444L69.3724 65.1678L69.4957 64.1755L68.5034 64.0521L68.38 65.0444ZM68.2277 66.2694L68.1044 67.2618L69.0967 67.3851L69.2201 66.3928L68.2277 66.2694ZM61.8859 65.481L60.8936 65.3577L60.7702 66.35L61.7626 66.4734L61.8859 65.481ZM62.0382 64.2561L62.1616 63.2637L61.1692 63.1403L61.0458 64.1327L62.0382 64.2561ZM65.3105 58.1152L60.2947 67.9387L62.076 68.8481L67.0918 59.0247L65.3105 58.1152ZM61.3087 67.401L59.7814 67.2112L59.5347 69.1959L61.062 69.3858L61.3087 67.401ZM60.5414 68.6723L66.2475 57.9191L64.4808 56.9816L58.7747 67.7348L60.5414 68.6723ZM65.2408 58.4427L66.2254 58.5651L66.4721 56.5804L65.4875 56.458L65.2408 58.4427ZM65.3595 57.4263L65.2119 58.4235L67.1904 58.7164L67.338 57.7191L65.3595 57.4263ZM69.0291 69.0238L66.5634 58.2703L64.614 58.7173L67.0797 69.4708L69.0291 69.0238ZM66.5837 58.5941L66.6847 57.5911L64.6948 57.3905L64.5937 58.3935L66.5837 58.5941ZM65.5664 58.4832L66.551 58.6056L66.7977 56.6208L65.8131 56.4984L65.5664 58.4832ZM65.7034 57.8526L68.6185 69.6775L70.5604 69.1988L67.6453 57.3739L65.7034 57.8526ZM69.7128 68.4458L68.1777 68.255L67.931 70.2397L69.4661 70.4305L69.7128 68.4458ZM67.3877 64.9211L67.2354 66.146L69.2201 66.3928L69.3724 65.1678L67.3877 64.9211ZM68.3511 65.277L62.0093 64.4887L61.7626 66.4734L68.1044 67.2618L68.3511 65.277ZM62.8783 65.6044L63.0306 64.3794L61.0458 64.1327L60.8936 65.3577L62.8783 65.6044ZM61.9148 65.2484L68.2567 66.0368L68.5034 64.0521L62.1616 63.2637L61.9148 65.2484Z" fill="white" mask="url(#path-16-outside-7_529_153)"/>
<mask id="path-18-outside-8_529_153" maskUnits="userSpaceOnUse" x="69.6817" y="56.8347" width="13.9384" height="16.1637" fill="black">
<rect fill="white" x="69.6817" y="56.8347" width="13.9384" height="16.1637"/>
<path d="M74.1921 70.4994L71.8815 69.9504L72.1802 68.7606L74.4757 69.3061C75.2662 69.4939 75.964 69.4857 76.5693 69.2816C77.1758 69.0723 77.6818 68.7001 78.0873 68.1647C78.4992 67.6256 78.8008 66.9531 78.9923 66.1474L79.153 65.4709C79.3035 64.8375 79.3611 64.257 79.3259 63.7294C79.2919 63.1966 79.1682 62.7256 78.955 62.3163C78.743 61.9019 78.4452 61.5554 78.0617 61.2769C77.6833 60.9997 77.2204 60.796 76.6731 60.666L74.1801 60.0736L74.4654 58.8726L76.9585 59.465C77.6831 59.6372 78.3155 59.9159 78.8556 60.3012C79.397 60.6815 79.8288 61.1508 80.1512 61.7092C80.4798 62.2637 80.6842 62.8904 80.7644 63.5894C80.8458 64.2832 80.7914 65.0305 80.6012 65.8311L80.444 66.4924C80.2538 67.293 79.9657 67.9874 79.5797 68.5755C79.1949 69.1586 78.7285 69.6233 78.1805 69.9695C77.6375 70.317 77.0281 70.5389 76.3521 70.6352C75.6823 70.7277 74.9624 70.6824 74.1921 70.4994ZM75.2939 59.0695L72.6644 70.1364L71.1974 69.7878L73.8269 58.7209L75.2939 59.0695Z"/>
</mask>
<path d="M74.1921 70.4994L71.8815 69.9504L72.1802 68.7606L74.4757 69.3061C75.2662 69.4939 75.964 69.4857 76.5693 69.2816C77.1758 69.0723 77.6818 68.7001 78.0873 68.1647C78.4992 67.6256 78.8008 66.9531 78.9923 66.1474L79.153 65.4709C79.3035 64.8375 79.3611 64.257 79.3259 63.7294C79.2919 63.1966 79.1682 62.7256 78.955 62.3163C78.743 61.9019 78.4452 61.5554 78.0617 61.2769C77.6833 60.9997 77.2204 60.796 76.6731 60.666L74.1801 60.0736L74.4654 58.8726L76.9585 59.465C77.6831 59.6372 78.3155 59.9159 78.8556 60.3012C79.397 60.6815 79.8288 61.1508 80.1512 61.7092C80.4798 62.2637 80.6842 62.8904 80.7644 63.5894C80.8458 64.2832 80.7914 65.0305 80.6012 65.8311L80.444 66.4924C80.2538 67.293 79.9657 67.9874 79.5797 68.5755C79.1949 69.1586 78.7285 69.6233 78.1805 69.9695C77.6375 70.317 77.0281 70.5389 76.3521 70.6352C75.6823 70.7277 74.9624 70.6824 74.1921 70.4994ZM75.2939 59.0695L72.6644 70.1364L71.1974 69.7878L73.8269 58.7209L75.2939 59.0695Z" fill="white"/>
<path d="M71.8815 69.9504L70.9116 69.7068L70.6649 70.6892L71.6503 70.9233L71.8815 69.9504ZM72.1802 68.7606L72.4114 67.7877L71.4508 67.5595L71.2103 68.5171L72.1802 68.7606ZM76.5693 69.2816L76.8889 70.2291L76.8954 70.2269L76.5693 69.2816ZM78.0873 68.1647L77.2926 67.5577L77.2903 67.5609L78.0873 68.1647ZM79.3259 63.7294L78.3279 63.7931L78.3281 63.796L79.3259 63.7294ZM78.955 62.3163L78.0647 62.7718L78.0681 62.7783L78.955 62.3163ZM78.0617 61.2769L77.4707 62.0836L77.4741 62.0861L78.0617 61.2769ZM74.1801 60.0736L73.2071 59.8424L72.976 60.8153L73.9489 61.0465L74.1801 60.0736ZM74.4654 58.8726L74.6966 57.8997L73.7237 57.6686L73.4925 58.6415L74.4654 58.8726ZM78.8556 60.3012L78.2749 61.1154L78.2809 61.1195L78.8556 60.3012ZM80.1512 61.7092L79.2851 62.2092L79.2909 62.219L80.1512 61.7092ZM80.7644 63.5894L79.7709 63.7033L79.7712 63.7059L80.7644 63.5894ZM79.5797 68.5755L80.4143 69.1263L80.4157 69.1242L79.5797 68.5755ZM78.1805 69.9695L77.6463 69.1241L77.6415 69.1272L78.1805 69.9695ZM76.3521 70.6352L76.4888 71.6258L76.4931 71.6252L76.3521 70.6352ZM75.2939 59.0695L76.2668 59.3007L76.498 58.3278L75.5251 58.0966L75.2939 59.0695ZM72.6644 70.1364L72.4332 71.1093L73.4061 71.3405L73.6373 70.3676L72.6644 70.1364ZM71.1974 69.7878L70.2245 69.5567L69.9933 70.5296L70.9662 70.7607L71.1974 69.7878ZM73.8269 58.7209L74.0581 57.748L73.0852 57.5169L72.854 58.4898L73.8269 58.7209ZM74.4233 69.5265L72.1126 68.9775L71.6503 70.9233L73.961 71.4723L74.4233 69.5265ZM72.8514 70.1939L73.1501 69.0042L71.2103 68.5171L70.9116 69.7068L72.8514 70.1939ZM71.949 69.7336L74.2445 70.279L74.7068 68.3331L72.4114 67.7877L71.949 69.7336ZM74.2445 70.279C75.1683 70.4985 76.0637 70.5075 76.8889 70.2291L76.2497 68.334C75.8644 68.464 75.3641 68.4893 74.7068 68.3331L74.2445 70.279ZM76.8954 70.2269C77.6983 69.9499 78.3651 69.4541 78.8844 68.7686L77.2903 67.5609C76.9984 67.946 76.6532 68.1948 76.2432 68.3362L76.8954 70.2269ZM78.882 68.7717C79.3956 68.0994 79.7483 67.2913 79.9652 66.3786L78.0193 65.9162C77.8533 66.6149 77.6028 67.1517 77.2926 67.5577L78.882 68.7717ZM79.9652 66.3786L80.1259 65.7021L78.1801 65.2398L78.0193 65.9162L79.9652 66.3786ZM80.1259 65.7021C80.2944 64.9928 80.3669 64.3103 80.3237 63.6627L78.3281 63.796C78.3553 64.2037 78.3126 64.6822 78.1801 65.2398L80.1259 65.7021ZM80.3239 63.6656C80.2823 63.0155 80.1288 62.4051 79.8419 61.8543L78.0681 62.7783C78.2077 63.0462 78.3014 63.3778 78.3279 63.7931L80.3239 63.6656ZM79.8453 61.8608C79.5602 61.3037 79.1577 60.837 78.6493 60.4678L77.4741 62.0861C77.7327 62.2739 77.9257 62.5 78.0648 62.7718L79.8453 61.8608ZM78.6527 60.4703C78.1475 60.1001 77.5561 59.8479 76.9043 59.693L76.442 61.6389C76.8847 61.7441 77.2191 61.8992 77.4707 62.0836L78.6527 60.4703ZM76.9043 59.693L74.4112 59.1007L73.9489 61.0465L76.442 61.6389L76.9043 59.693ZM75.153 60.3048L75.4383 59.1038L73.4925 58.6415L73.2071 59.8424L75.153 60.3048ZM74.2342 59.8456L76.7273 60.4379L77.1897 58.4921L74.6966 57.8997L74.2342 59.8456ZM76.7273 60.4379C77.3416 60.5839 77.8521 60.8137 78.2749 61.1153L79.4364 59.4871C78.7789 59.0182 78.0246 58.6905 77.1897 58.4921L76.7273 60.4379ZM78.2809 61.1195C78.7063 61.4184 79.0375 61.7801 79.2852 62.2091L81.0172 61.2092C80.6202 60.5214 80.0877 59.9446 79.4304 59.4829L78.2809 61.1195ZM79.2909 62.219C79.5414 62.6417 79.7053 63.1313 79.7709 63.7033L81.7579 63.4754C81.6632 62.6495 81.4182 61.8857 81.0115 61.1993L79.2909 62.219ZM79.7712 63.7059C79.8368 64.2649 79.7961 64.8933 79.6282 65.5999L81.5741 66.0623C81.7866 65.1676 81.8548 64.3015 81.7576 63.4729L79.7712 63.7059ZM79.6282 65.5999L79.4711 66.2612L81.4169 66.7235L81.5741 66.0623L79.6282 65.5999ZM79.4711 66.2612C79.3033 66.9676 79.0561 67.5507 78.7436 68.0269L80.4157 69.1242C80.8752 68.424 81.2043 67.6184 81.4169 66.7235L79.4711 66.2612ZM78.745 68.0247C78.4322 68.4988 78.0653 68.8594 77.6463 69.1241L78.7146 70.8149C79.3916 70.3872 79.9575 69.8185 80.4143 69.1263L78.745 68.0247ZM77.6415 69.1272C77.2261 69.393 76.7539 69.5678 76.211 69.6452L76.4931 71.6252C77.3023 71.5099 78.0489 71.2409 78.7195 70.8118L77.6415 69.1272ZM76.2153 69.6446C75.6873 69.7175 75.0933 69.6857 74.4233 69.5265L73.961 71.4723C74.8314 71.6791 75.6774 71.7379 76.4888 71.6258L76.2153 69.6446ZM74.321 58.8383L71.6914 69.9052L73.6373 70.3676L76.2668 59.3007L74.321 58.8383ZM72.8955 69.1635L71.4286 68.8149L70.9662 70.7607L72.4332 71.1093L72.8955 69.1635ZM72.1703 70.019L74.7998 58.9521L72.854 58.4898L70.2245 69.5567L72.1703 70.019ZM73.5958 59.6939L75.0627 60.0424L75.5251 58.0966L74.0581 57.748L73.5958 59.6939Z" fill="white" mask="url(#path-18-outside-8_529_153)"/>
<mask id="path-20-outside-9_529_153" maskUnits="userSpaceOnUse" x="78.6343" y="59.3651" width="17.3208" height="18.5229" fill="black">
<rect fill="white" x="78.6343" y="59.3651" width="17.3208" height="18.5229"/>
<path d="M91.7866 69.6666L91.5425 70.3427C91.2525 71.1461 90.8921 71.83 90.4613 72.3943C90.0306 72.9587 89.5461 73.3957 89.008 73.7053C88.4698 74.0149 87.8938 74.1918 87.2798 74.236C86.6707 74.2819 86.0404 74.1872 85.3889 73.952C84.7569 73.7239 84.2188 73.3968 83.7747 72.9706C83.3354 72.5463 83.0027 72.0413 82.7766 71.4558C82.5554 70.8721 82.4544 70.2237 82.4737 69.5108C82.4929 68.7979 82.6476 68.0398 82.9376 67.2364L83.1816 66.5603C83.4717 65.7569 83.8336 65.0763 84.2675 64.5187C84.7081 63.9578 85.1999 63.5235 85.7429 63.2156C86.2877 62.9029 86.8647 62.7235 87.4737 62.6776C88.0877 62.6335 88.7107 62.7255 89.3426 62.9536C89.9942 63.1888 90.5396 63.5186 90.9789 63.943C91.4231 64.3691 91.7524 64.8756 91.967 65.4625C92.1881 66.0462 92.2842 66.6928 92.2552 67.4021C92.2328 68.1084 92.0766 68.8632 91.7866 69.6666ZM90.139 69.836L90.3883 69.1453C90.6182 68.5084 90.7555 67.9212 90.8 67.3835C90.8495 66.8476 90.8095 66.368 90.6799 65.9447C90.5503 65.5214 90.3352 65.1586 90.0346 64.8563C89.7388 64.5557 89.3632 64.3232 88.9076 64.1587C88.4667 63.9996 88.0365 63.9412 87.6169 63.9835C87.2023 64.0277 86.8075 64.1703 86.4325 64.4115C86.0624 64.6544 85.7204 64.9961 85.4064 65.4364C85.0923 65.8768 84.8204 66.4154 84.5905 67.0523L84.3411 67.743C84.1095 68.3848 83.9729 68.9778 83.9315 69.5221C83.8918 70.0615 83.9383 70.5462 84.071 70.9762C84.2104 71.4031 84.4255 71.7659 84.7163 72.0647C85.0121 72.3652 85.3804 72.5951 85.8213 72.7543C86.2818 72.9205 86.7218 72.9824 87.1413 72.9401C87.5608 72.8977 87.9532 72.7542 88.3184 72.5095C88.6902 72.2616 89.0283 71.9158 89.3325 71.4719C89.6385 71.023 89.9073 70.4778 90.139 69.836Z"/>
</mask>
<path d="M91.7866 69.6666L91.5425 70.3427C91.2525 71.1461 90.8921 71.83 90.4613 72.3943C90.0306 72.9587 89.5461 73.3957 89.008 73.7053C88.4698 74.0149 87.8938 74.1918 87.2798 74.236C86.6707 74.2819 86.0404 74.1872 85.3889 73.952C84.7569 73.7239 84.2188 73.3968 83.7747 72.9706C83.3354 72.5463 83.0027 72.0413 82.7766 71.4558C82.5554 70.8721 82.4544 70.2237 82.4737 69.5108C82.4929 68.7979 82.6476 68.0398 82.9376 67.2364L83.1816 66.5603C83.4717 65.7569 83.8336 65.0763 84.2675 64.5187C84.7081 63.9578 85.1999 63.5235 85.7429 63.2156C86.2877 62.9029 86.8647 62.7235 87.4737 62.6776C88.0877 62.6335 88.7107 62.7255 89.3426 62.9536C89.9942 63.1888 90.5396 63.5186 90.9789 63.943C91.4231 64.3691 91.7524 64.8756 91.967 65.4625C92.1881 66.0462 92.2842 66.6928 92.2552 67.4021C92.2328 68.1084 92.0766 68.8632 91.7866 69.6666ZM90.139 69.836L90.3883 69.1453C90.6182 68.5084 90.7555 67.9212 90.8 67.3835C90.8495 66.8476 90.8095 66.368 90.6799 65.9447C90.5503 65.5214 90.3352 65.1586 90.0346 64.8563C89.7388 64.5557 89.3632 64.3232 88.9076 64.1587C88.4667 63.9996 88.0365 63.9412 87.6169 63.9835C87.2023 64.0277 86.8075 64.1703 86.4325 64.4115C86.0624 64.6544 85.7204 64.9961 85.4064 65.4364C85.0923 65.8768 84.8204 66.4154 84.5905 67.0523L84.3411 67.743C84.1095 68.3848 83.9729 68.9778 83.9315 69.5221C83.8918 70.0615 83.9383 70.5462 84.071 70.9762C84.2104 71.4031 84.4255 71.7659 84.7163 72.0647C85.0121 72.3652 85.3804 72.5951 85.8213 72.7543C86.2818 72.9205 86.7218 72.9824 87.1413 72.9401C87.5608 72.8977 87.9532 72.7542 88.3184 72.5095C88.6902 72.2616 89.0283 71.9158 89.3325 71.4719C89.6385 71.023 89.9073 70.4778 90.139 69.836Z" fill="white"/>
<path d="M89.008 73.7053L88.5093 72.8385L89.008 73.7053ZM87.2798 74.236L87.2081 73.2385L87.2046 73.2388L87.2798 74.236ZM83.7747 72.9706L83.0799 73.6899L83.0824 73.6923L83.7747 72.9706ZM82.7766 71.4558L81.8414 71.8101L81.8437 71.816L82.7766 71.4558ZM84.2675 64.5187L83.4811 63.9009L83.4782 63.9046L84.2675 64.5187ZM85.7429 63.2156L86.2361 64.0856L86.2408 64.0829L85.7429 63.2156ZM87.4737 62.6776L87.402 61.6802L87.3985 61.6805L87.4737 62.6776ZM90.9789 63.943L90.2841 64.6622L90.2866 64.6646L90.9789 63.943ZM91.967 65.4625L91.0277 65.8058L91.0318 65.8168L91.967 65.4625ZM92.2552 67.4021L91.256 67.3612L91.2557 67.3705L92.2552 67.4021ZM90.8 67.3835L89.8042 67.2916L89.8035 67.3009L90.8 67.3835ZM90.0346 64.8563L89.3217 65.5576L89.3255 65.5614L90.0346 64.8563ZM87.6169 63.9835L87.5165 62.9886L87.5111 62.9891L87.6169 63.9835ZM86.4325 64.4115L85.8916 63.5704L85.8838 63.5755L86.4325 64.4115ZM83.9315 69.5221L82.9343 69.4462L82.9341 69.4488L83.9315 69.5221ZM84.071 70.9762L83.1155 71.2711L83.1179 71.2789L83.1204 71.2866L84.071 70.9762ZM84.7163 72.0647L83.9997 72.7622L84.0035 72.766L84.7163 72.0647ZM88.3184 72.5095L87.7638 71.6773L87.7617 71.6787L88.3184 72.5095ZM89.3325 71.4719L90.1574 72.0372L90.1587 72.0352L89.3325 71.4719ZM90.846 69.3271L90.6019 70.0031L92.4831 70.6822L92.7272 70.0062L90.846 69.3271ZM90.6019 70.0031C90.3397 70.7294 90.0242 71.3189 89.6664 71.7876L91.2562 73.0011C91.76 72.3411 92.1652 71.5628 92.4831 70.6822L90.6019 70.0031ZM89.6664 71.7876C89.3047 72.2615 88.9171 72.6039 88.5093 72.8385L89.5067 74.5721C90.1752 74.1874 90.7565 73.6558 91.2562 73.0011L89.6664 71.7876ZM88.5093 72.8385C88.1006 73.0736 87.6704 73.2053 87.2081 73.2385L87.3515 75.2334C88.1172 75.1783 88.8391 74.9562 89.5067 74.5721L88.5093 72.8385ZM87.2046 73.2388C86.754 73.2728 86.2651 73.2052 85.7284 73.0115L85.0493 74.8926C85.8158 75.1693 86.5875 75.291 87.355 75.2331L87.2046 73.2388ZM85.7284 73.0115C85.2159 72.8264 84.8012 72.5697 84.4669 72.249L83.0824 73.6923C83.6365 74.2238 84.2979 74.6214 85.0493 74.8926L85.7284 73.0115ZM84.4694 72.2514C84.1376 71.9308 83.8847 71.5494 83.7095 71.0956L81.8437 71.816C82.1206 72.5332 82.5331 73.1617 83.0799 73.6899L84.4694 72.2514ZM83.7117 71.1015C83.5427 70.6555 83.4571 70.139 83.4733 69.5378L81.474 69.4839C81.4518 70.3085 81.5681 71.0886 81.8415 71.8101L83.7117 71.1015ZM83.4733 69.5378C83.4892 68.9503 83.6174 68.2982 83.8782 67.5759L81.997 66.8968C81.6777 67.7814 81.4967 68.6456 81.474 69.4839L83.4733 69.5378ZM83.8782 67.5759L84.1222 66.8999L82.241 66.2208L81.997 66.8968L83.8782 67.5759ZM84.1222 66.8999C84.3838 66.1754 84.6993 65.5922 85.0568 65.1327L83.4782 63.9046C82.9679 64.5605 82.5596 65.3384 82.241 66.2208L84.1222 66.8999ZM85.0539 65.1364C85.4254 64.6635 85.8212 64.3208 86.2361 64.0856L85.2497 62.3457C84.5785 62.7263 83.9907 63.2522 83.4811 63.9009L85.0539 65.1364ZM86.2408 64.0829C86.6599 63.8423 87.093 63.7092 87.5489 63.6748L87.3985 61.6805C86.6363 61.7379 85.9155 61.9635 85.245 62.3484L86.2408 64.0829ZM87.5455 63.6751C88.0075 63.6418 88.4906 63.7092 89.0031 63.8942L89.6822 62.013C88.9308 61.7418 88.1679 61.6251 87.402 61.6802L87.5455 63.6751ZM89.0031 63.8942C89.5397 64.0879 89.9591 64.3482 90.2841 64.6622L91.6737 63.2237C91.1201 62.689 90.4486 62.2897 89.6822 62.013L89.0031 63.8942ZM90.2866 64.6646C90.619 64.9835 90.8648 65.36 91.0277 65.8058L92.9062 65.1192C92.6401 64.3913 92.2272 63.7547 91.6712 63.2213L90.2866 64.6646ZM91.0318 65.8168C91.1991 66.2583 91.2803 66.7682 91.256 67.3612L93.2543 67.443C93.2881 66.6174 93.1772 65.8341 92.9021 65.1082L91.0318 65.8168ZM91.2557 67.3705C91.2372 67.9523 91.1075 68.6026 90.846 69.3271L92.7272 70.0062C93.0457 69.1238 93.2284 68.2644 93.2547 67.4338L91.2557 67.3705ZM91.0796 70.1755L91.3289 69.4848L89.4477 68.8057L89.1984 69.4965L91.0796 70.1755ZM91.3289 69.4848C91.5815 68.7852 91.7432 68.1105 91.7966 67.4661L89.8035 67.3009C89.7677 67.7318 89.655 68.2316 89.4477 68.8057L91.3289 69.4848ZM91.7958 67.4754C91.8547 66.8372 91.811 66.2235 91.6361 65.652L89.7237 66.2374C89.8079 66.5126 89.8443 66.8581 89.8043 67.2916L91.7958 67.4754ZM91.6361 65.652C91.4608 65.0794 91.1634 64.5733 90.7437 64.1512L89.3255 65.5614C89.5069 65.7439 89.6398 65.9635 89.7237 66.2374L91.6361 65.652ZM90.7474 64.1549C90.3321 63.7329 89.8225 63.4259 89.2471 63.2181L88.568 65.0993C88.9038 65.2205 89.1455 65.3785 89.3217 65.5576L90.7474 64.1549ZM89.2471 63.2181C88.6813 63.0139 88.1008 62.9296 87.5165 62.9886L87.7174 64.9785C87.9721 64.9527 88.252 64.9852 88.568 65.0993L89.2471 63.2181ZM87.5111 62.9891C86.9309 63.0509 86.3884 63.2509 85.8916 63.5704L86.9734 65.2526C87.2266 65.0897 87.4738 65.0044 87.7228 64.9779L87.5111 62.9891ZM85.8838 63.5755C85.39 63.8996 84.9626 64.3363 84.5921 64.8559L86.2206 66.017C86.4781 65.6558 86.7349 65.4092 86.9813 65.2475L85.8838 63.5755ZM84.5921 64.8559C84.2139 65.3863 83.9033 66.0107 83.6499 66.7127L85.5311 67.3918C85.7374 66.8202 85.9708 66.3673 86.2206 66.017L84.5921 64.8559ZM83.6499 66.7127L83.4005 67.4035L85.2817 68.0826L85.5311 67.3918L83.6499 66.7127ZM83.4005 67.4035C83.1455 68.11 82.9841 68.7927 82.9343 69.4462L84.9286 69.598C84.9617 69.1629 85.0734 68.6596 85.2817 68.0826L83.4005 67.4035ZM82.9341 69.4488C82.8871 70.088 82.9394 70.7007 83.1155 71.2711L85.0265 70.6813C84.9372 70.3918 84.8964 70.0351 84.9288 69.5955L82.9341 69.4488ZM83.1204 71.2866C83.3035 71.8473 83.5943 72.3456 83.9997 72.7622L85.4329 71.3672C85.2567 71.1861 85.1173 70.9588 85.0216 70.6658L83.1204 71.2866ZM84.0035 72.766C84.4154 73.1847 84.9159 73.4906 85.4817 73.6949L86.1608 71.8137C85.8448 71.6996 85.6087 71.5458 85.4292 71.3633L84.0035 72.766ZM85.4817 73.6949C86.0604 73.9037 86.6512 73.9946 87.2418 73.935L87.0408 71.9451C86.7924 71.9702 86.5032 71.9373 86.1608 71.8137L85.4817 73.6949ZM87.2418 73.935C87.8316 73.8754 88.3795 73.6722 88.875 73.3402L87.7617 71.6787C87.5268 71.8361 87.2901 71.92 87.0408 71.9451L87.2418 73.935ZM88.8729 73.3416C89.3704 73.01 89.7953 72.5655 90.1574 72.0372L88.5076 70.9066C88.2612 71.2661 88.01 71.5132 87.7638 71.6773L88.8729 73.3416ZM90.1587 72.0352C90.5224 71.5018 90.8263 70.8772 91.0796 70.1755L89.1984 69.4965C88.9883 70.0783 88.7546 70.5443 88.5063 70.9085L90.1587 72.0352Z" fill="white" mask="url(#path-20-outside-9_529_153)"/>
<mask id="path-22-outside-10_529_153" maskUnits="userSpaceOnUse" x="88.9172" y="63.6308" width="16.4673" height="18.3059" fill="black">
<rect fill="white" x="88.9172" y="63.6308" width="16.4673" height="18.3059"/>
<path d="M98.5891 76.4076C98.7057 76.169 98.7711 75.9401 98.7854 75.721C98.8066 75.4995 98.7626 75.2693 98.6532 75.0304C98.5485 74.7938 98.3702 74.5299 98.1182 74.2387C97.871 73.9499 97.5406 73.6175 97.1272 73.2417C96.6949 72.845 96.3197 72.456 96.0017 72.0746C95.686 71.6886 95.4414 71.3053 95.2678 70.9249C95.0942 70.5445 95.0057 70.1622 95.0021 69.7779C94.9985 69.3936 95.0939 69.0025 95.2882 68.6047C95.4825 68.2069 95.7438 67.8796 96.0722 67.6226C96.4006 67.3657 96.7774 67.1875 97.2028 67.088C97.6351 66.9862 98.0985 66.9691 98.5929 67.0367C99.0874 67.1043 99.5967 67.2661 100.121 67.5221C100.888 67.897 101.467 68.3622 101.856 68.9176C102.253 69.4706 102.476 70.052 102.526 70.6619C102.578 71.267 102.474 71.8363 102.213 72.3698L100.866 71.7115C101.053 71.3278 101.137 70.9485 101.117 70.5736C101.099 70.1941 100.966 69.839 100.716 69.5082C100.468 69.1727 100.089 68.8804 99.5791 68.6313C99.097 68.3958 98.6638 68.2741 98.2794 68.266C97.895 68.2579 97.565 68.3402 97.2894 68.5128C97.0185 68.6877 96.8053 68.9342 96.6499 69.2524C96.5447 69.4677 96.4932 69.686 96.4952 69.9073C96.5042 70.1261 96.5681 70.3573 96.6868 70.6008C96.8103 70.8466 96.9909 71.1058 97.2287 71.3784C97.4711 71.6534 97.7744 71.9522 98.1384 72.2749C98.6387 72.7222 99.0503 73.1493 99.3732 73.5562C99.6961 73.9632 99.9316 74.3593 100.08 74.7446C100.235 75.1275 100.3 75.5101 100.275 75.8923C100.258 76.2722 100.152 76.661 99.9578 77.0588C99.7544 77.4753 99.4861 77.8109 99.1531 78.0655C98.82 78.3202 98.4384 78.4903 98.0083 78.5758C97.5781 78.6613 97.1111 78.6622 96.6072 78.5783C96.1103 78.4921 95.5927 78.3176 95.0545 78.0547C94.5818 77.8238 94.1482 77.5309 93.7535 77.1758C93.3636 76.823 93.0454 76.4242 92.7991 75.9792C92.5574 75.5366 92.4179 75.0685 92.3807 74.575C92.3505 74.0792 92.4599 73.5762 92.7091 73.0661L94.0569 73.7244C93.8855 74.0754 93.8059 74.4104 93.8182 74.7294C93.8327 75.0437 93.917 75.3399 94.071 75.618C94.2297 75.8984 94.4393 76.1515 94.7 76.3774C94.9676 76.6008 95.2652 76.7926 95.5928 76.9526C96.0655 77.1834 96.4976 77.3134 96.8892 77.3423C97.2808 77.3713 97.6203 77.3053 97.9076 77.1442C98.1997 76.9854 98.4268 76.7399 98.5891 76.4076Z"/>
</mask>
<path d="M98.5891 76.4076C98.7057 76.169 98.7711 75.9401 98.7854 75.721C98.8066 75.4995 98.7626 75.2693 98.6532 75.0304C98.5485 74.7938 98.3702 74.5299 98.1182 74.2387C97.871 73.9499 97.5406 73.6175 97.1272 73.2417C96.6949 72.845 96.3197 72.456 96.0017 72.0746C95.686 71.6886 95.4414 71.3053 95.2678 70.9249C95.0942 70.5445 95.0057 70.1622 95.0021 69.7779C94.9985 69.3936 95.0939 69.0025 95.2882 68.6047C95.4825 68.2069 95.7438 67.8796 96.0722 67.6226C96.4006 67.3657 96.7774 67.1875 97.2028 67.088C97.6351 66.9862 98.0985 66.9691 98.5929 67.0367C99.0874 67.1043 99.5967 67.2661 100.121 67.5221C100.888 67.897 101.467 68.3622 101.856 68.9176C102.253 69.4706 102.476 70.052 102.526 70.6619C102.578 71.267 102.474 71.8363 102.213 72.3698L100.866 71.7115C101.053 71.3278 101.137 70.9485 101.117 70.5736C101.099 70.1941 100.966 69.839 100.716 69.5082C100.468 69.1727 100.089 68.8804 99.5791 68.6313C99.097 68.3958 98.6638 68.2741 98.2794 68.266C97.895 68.2579 97.565 68.3402 97.2894 68.5128C97.0185 68.6877 96.8053 68.9342 96.6499 69.2524C96.5447 69.4677 96.4932 69.686 96.4952 69.9073C96.5042 70.1261 96.5681 70.3573 96.6868 70.6008C96.8103 70.8466 96.9909 71.1058 97.2287 71.3784C97.4711 71.6534 97.7744 71.9522 98.1384 72.2749C98.6387 72.7222 99.0503 73.1493 99.3732 73.5562C99.6961 73.9632 99.9316 74.3593 100.08 74.7446C100.235 75.1275 100.3 75.5101 100.275 75.8923C100.258 76.2722 100.152 76.661 99.9578 77.0588C99.7544 77.4753 99.4861 77.8109 99.1531 78.0655C98.82 78.3202 98.4384 78.4903 98.0083 78.5758C97.5781 78.6613 97.1111 78.6622 96.6072 78.5783C96.1103 78.4921 95.5927 78.3176 95.0545 78.0547C94.5818 77.8238 94.1482 77.5309 93.7535 77.1758C93.3636 76.823 93.0454 76.4242 92.7991 75.9792C92.5574 75.5366 92.4179 75.0685 92.3807 74.575C92.3505 74.0792 92.4599 73.5762 92.7091 73.0661L94.0569 73.7244C93.8855 74.0754 93.8059 74.4104 93.8182 74.7294C93.8327 75.0437 93.917 75.3399 94.071 75.618C94.2297 75.8984 94.4393 76.1515 94.7 76.3774C94.9676 76.6008 95.2652 76.7926 95.5928 76.9526C96.0655 77.1834 96.4976 77.3134 96.8892 77.3423C97.2808 77.3713 97.6203 77.3053 97.9076 77.1442C98.1997 76.9854 98.4268 76.7399 98.5891 76.4076Z" fill="white"/>
<path d="M98.7854 75.721L97.7899 75.6255L97.7885 75.6407L97.7875 75.656L98.7854 75.721ZM98.6532 75.0304L97.7386 75.435L97.7439 75.4466L98.6532 75.0304ZM98.1182 74.2387L97.3585 74.889L97.362 74.8931L98.1182 74.2387ZM97.1272 73.2417L96.4511 73.9785L96.4545 73.9816L97.1272 73.2417ZM96.0017 72.0746L95.2276 72.7077L95.2337 72.715L96.0017 72.0746ZM97.2028 67.088L97.4305 68.0618L97.4321 68.0614L97.2028 67.088ZM101.856 68.9176L101.038 69.4918L101.044 69.5002L101.856 68.9176ZM102.526 70.6619L101.529 70.7434L101.53 70.7478L102.526 70.6619ZM102.213 72.3698L101.774 73.2684L102.673 73.7073L103.112 72.8087L102.213 72.3698ZM100.866 71.7115L99.967 71.2726L99.5281 72.1712L100.427 72.61L100.866 71.7115ZM101.117 70.5736L100.118 70.6197L100.118 70.6263L101.117 70.5736ZM100.716 69.5082L99.9113 70.1022L99.918 70.1111L100.716 69.5082ZM97.2894 68.5128L96.7585 67.6652L96.747 67.6726L97.2894 68.5128ZM96.4952 69.9073L95.4953 69.9165L95.4954 69.9325L95.4961 69.9484L96.4952 69.9073ZM96.6868 70.6008L95.788 71.0391L95.7932 71.0495L96.6868 70.6008ZM97.2287 71.3784L96.475 72.0357L96.4787 72.0399L97.2287 71.3784ZM98.1384 72.2749L98.8049 71.5294L98.8018 71.5266L98.1384 72.2749ZM100.08 74.7446L99.1461 75.1032L99.1493 75.1115L99.1526 75.1198L100.08 74.7446ZM100.275 75.8923L99.2775 75.8286L99.2769 75.8375L99.2765 75.8465L100.275 75.8923ZM98.0083 78.5758L97.8133 77.595L98.0083 78.5758ZM96.6072 78.5783L96.4362 79.5636L96.4431 79.5648L96.6072 78.5783ZM93.7535 77.1758L93.0827 77.9174L93.0847 77.9192L93.7535 77.1758ZM92.7991 75.9792L91.9214 76.4585L91.9242 76.4637L92.7991 75.9792ZM92.3807 74.575L91.3826 74.6359L91.383 74.643L91.3835 74.6502L92.3807 74.575ZM92.7091 73.0661L93.148 72.1675L92.2495 71.7286L91.8106 72.6272L92.7091 73.0661ZM94.0569 73.7244L94.9555 74.1633L95.3943 73.2647L94.4958 72.8259L94.0569 73.7244ZM93.8182 74.7294L92.8189 74.7679L92.8193 74.7757L93.8182 74.7294ZM94.071 75.618L93.1961 76.1025L93.2007 76.1105L94.071 75.618ZM94.7 76.3774L94.0451 77.1331L94.052 77.1391L94.0591 77.145L94.7 76.3774ZM97.9076 77.1442L97.4299 76.2656L97.4187 76.2719L97.9076 77.1442ZM99.4877 76.8465C99.6497 76.5148 99.759 76.1592 99.7833 75.786L97.7875 75.656C97.7833 75.721 97.7617 75.8231 97.6906 75.9687L99.4877 76.8465ZM99.7808 75.8164C99.8217 75.3904 99.7317 74.9839 99.5624 74.6142L97.7439 75.4466C97.7934 75.5547 97.7916 75.6086 97.7899 75.6255L99.7808 75.8164ZM99.5677 74.6258C99.4085 74.2659 99.1628 73.9177 98.8744 73.5844L97.362 74.8931C97.5775 75.1421 97.6885 75.3216 97.7387 75.435L99.5677 74.6258ZM98.8779 73.5885C98.5942 73.257 98.2312 72.8939 97.7998 72.5017L96.4545 73.9816C96.85 74.3411 97.1478 74.6427 97.3585 74.889L98.8779 73.5885ZM97.8032 72.5048C97.398 72.133 97.0547 71.776 96.7698 71.4342L95.2337 72.715C95.5847 73.136 95.9917 73.557 96.4511 73.9785L97.8032 72.5048ZM96.7758 71.4416C96.5044 71.1097 96.3094 70.7987 96.1776 70.5098L94.358 71.3401C94.5733 71.8119 94.8676 72.2675 95.2276 72.7077L96.7758 71.4416ZM96.1776 70.5098C96.057 70.2455 96.0042 70.0008 96.002 69.7686L94.0021 69.7872C94.0071 70.3235 94.1315 70.8435 94.358 71.3401L96.1776 70.5098ZM96.002 69.7686C96.0001 69.5615 96.0502 69.3231 96.1867 69.0436L94.3896 68.1658C94.1376 68.6819 93.9969 69.2256 94.0021 69.7872L96.002 69.7686ZM96.1867 69.0436C96.3187 68.7733 96.4867 68.5681 96.6884 68.4102L95.456 66.8351C95.001 67.1911 94.6462 67.6405 94.3896 68.1658L96.1867 69.0436ZM96.6884 68.4102C96.8969 68.247 97.1397 68.1297 97.4305 68.0617L96.9751 66.1143C96.4152 66.2452 95.9042 66.4843 95.456 66.8351L96.6884 68.4102ZM97.4321 68.0614C97.731 67.9909 98.0697 67.9744 98.4574 68.0274L98.7284 66.0459C98.1273 65.9637 97.5391 65.9814 96.9735 66.1147L97.4321 68.0614ZM98.4574 68.0274C98.8304 68.0785 99.2376 68.2036 99.6819 68.4207L100.56 66.6236C99.9557 66.3286 99.3443 66.1301 98.7284 66.0459L98.4574 68.0274ZM99.6819 68.4207C100.336 68.7402 100.767 69.1063 101.038 69.4917L102.675 68.3434C102.166 67.6181 101.441 67.0538 100.56 66.6236L99.6819 68.4207ZM101.044 69.5002C101.347 69.9229 101.496 70.334 101.529 70.7434L103.523 70.5803C103.456 69.7701 103.159 69.0183 102.669 68.3349L101.044 69.5002ZM101.53 70.7478C101.567 71.1767 101.494 71.5642 101.315 71.931L103.112 72.8087C103.454 72.1085 103.59 71.3573 103.522 70.5759L101.53 70.7478ZM102.652 71.4713L101.304 70.813L100.427 72.61L101.774 73.2684L102.652 71.4713ZM101.764 72.1504C102.016 71.6353 102.146 71.0877 102.116 70.5209L100.118 70.6263C100.128 70.8092 100.09 71.0202 99.967 71.2726L101.764 72.1504ZM102.116 70.5276C102.088 69.9279 101.874 69.3817 101.514 68.9052L99.918 70.1111C100.058 70.2962 100.111 70.4603 100.118 70.6197L102.116 70.5276ZM101.52 68.9142C101.149 68.4111 100.623 68.0282 100.018 67.7327L99.1402 69.5298C99.5554 69.7326 99.7874 69.9344 99.9113 70.1022L101.52 68.9142ZM100.018 67.7327C99.4538 67.4572 98.8753 67.2783 98.3004 67.2662L98.2584 69.2658C98.4524 69.2698 98.7403 69.3345 99.1402 69.5298L100.018 67.7327ZM98.3004 67.2662C97.7573 67.2548 97.2276 67.3715 96.7586 67.6653L97.8202 69.3603C97.9024 69.3088 98.0326 69.261 98.2584 69.2658L98.3004 67.2662ZM96.747 67.6726C96.3082 67.9559 95.9786 68.3482 95.7513 68.8136L97.5484 69.6913C97.632 69.5202 97.7287 69.4194 97.8318 69.3529L96.747 67.6726ZM95.7513 68.8136C95.5838 69.1566 95.4917 69.5275 95.4953 69.9165L97.4952 69.898C97.4947 69.8445 97.5056 69.7789 97.5484 69.6913L95.7513 68.8136ZM95.4961 69.9484C95.512 70.3337 95.6227 70.7001 95.788 71.0391L97.5857 70.1625C97.5135 70.0145 97.4965 69.9186 97.4944 69.8661L95.4961 69.9484ZM95.7932 71.0495C95.964 71.3897 96.1982 71.7184 96.475 72.0357L97.9823 70.7211C97.7835 70.4932 97.6565 70.3034 97.5805 70.152L95.7932 71.0495ZM96.4787 72.0399C96.7553 72.3535 97.0896 72.6815 97.4751 73.0232L98.8018 71.5266C98.4591 71.2228 98.187 70.9532 97.9787 70.717L96.4787 72.0399ZM97.472 73.0204C97.9414 73.4401 98.3108 73.8261 98.5899 74.1778L100.157 72.9347C99.7899 72.4724 99.3361 72.0042 98.8049 71.5294L97.472 73.0204ZM98.5899 74.1778C98.8652 74.5248 99.0425 74.8335 99.1461 75.1032L101.013 74.386C100.821 73.8852 100.527 73.4016 100.157 72.9347L98.5899 74.1778ZM99.1526 75.1198C99.2558 75.3747 99.2916 75.6077 99.2775 75.8286L101.273 75.956C101.308 75.4125 101.213 74.8804 101.007 74.3695L99.1526 75.1198ZM99.2765 75.8465C99.2662 76.0692 99.2034 76.3249 99.0593 76.6199L100.856 77.4977C101.101 76.9971 101.25 76.4751 101.274 75.9382L99.2765 75.8465ZM99.0593 76.6199C98.9167 76.9118 98.7428 77.1204 98.5457 77.2711L99.7605 78.8599C100.229 78.5014 100.592 78.0387 100.856 77.4977L99.0593 76.6199ZM98.5457 77.2711C98.3396 77.4287 98.1006 77.5379 97.8133 77.595L98.2033 79.5566C98.7762 79.4427 99.3004 79.2117 99.7605 78.8599L98.5457 77.2711ZM97.8133 77.595C97.5193 77.6535 97.1755 77.6591 96.7713 77.5919L96.4431 79.5648C97.0468 79.6652 97.637 79.6692 98.2033 79.5566L97.8133 77.595ZM96.7782 77.5931C96.3897 77.5257 95.9622 77.3851 95.4934 77.1561L94.6156 78.9532C95.2232 79.25 95.8309 79.4586 96.4362 79.5636L96.7782 77.5931ZM95.4934 77.1561C95.105 76.9664 94.7486 76.7259 94.4224 76.4324L93.0847 77.9192C93.5478 78.3358 94.0587 78.6812 94.6156 78.9532L95.4934 77.1561ZM94.4244 76.4342C94.1134 76.1528 93.8651 75.8401 93.6739 75.4948L91.9242 76.4637C92.2258 77.0082 92.6138 77.4932 93.0827 77.9174L94.4244 76.4342ZM93.6767 75.5C93.5018 75.1796 93.4042 74.8489 93.3779 74.4999L91.3835 74.6502C91.4316 75.2881 91.6129 75.8936 91.9214 76.4585L93.6767 75.5ZM93.3789 74.5142C93.3606 74.2141 93.4233 73.8823 93.6076 73.505L91.8106 72.6272C91.4966 73.27 91.3404 73.9443 91.3826 74.6359L93.3789 74.5142ZM92.2702 73.9646L93.618 74.6229L94.4958 72.8259L93.148 72.1675L92.2702 73.9646ZM93.1584 73.2855C92.9305 73.7521 92.799 74.2509 92.8189 74.7679L94.8174 74.6909C94.8128 74.5699 94.8405 74.3987 94.9555 74.1633L93.1584 73.2855ZM92.8193 74.7757C92.841 75.2453 92.9685 75.6912 93.1962 76.1024L94.9458 75.1336C94.8656 74.9886 94.8245 74.8422 94.8171 74.6831L92.8193 74.7757ZM93.2007 76.1105C93.4195 76.4971 93.7043 76.8378 94.0451 77.1331L95.3549 75.6216C95.1744 75.4653 95.0399 75.2997 94.9413 75.1255L93.2007 76.1105ZM94.0591 77.145C94.3913 77.4224 94.7573 77.6574 95.1539 77.8511L96.0317 76.054C95.7732 75.9278 95.544 75.7793 95.3409 75.6098L94.0591 77.145ZM95.1539 77.8511C95.7043 78.12 96.2619 78.2987 96.8154 78.3396L96.963 76.3451C96.7334 76.3281 96.4266 76.2469 96.0317 76.054L95.1539 77.8511ZM96.8154 78.3396C97.3646 78.3802 97.9074 78.2907 98.3966 78.0165L97.4187 76.2719C97.3332 76.3198 97.197 76.3624 96.963 76.3451L96.8154 78.3396ZM98.3853 78.0227C98.8802 77.7536 99.2449 77.3435 99.4877 76.8465L97.6906 75.9687C97.6087 76.1363 97.5191 76.2172 97.43 76.2657L98.3853 78.0227Z" fill="white" mask="url(#path-22-outside-10_529_153)"/>
</svg>
