<svg width="304" height="264" viewBox="0 0 304 264" fill="none" xmlns="http://www.w3.org/2000/svg">
<path d="M152.857 2L302 263H2L152.857 2Z" fill="#F4B331"/>
<path fill-rule="evenodd" clip-rule="evenodd" d="M119.463 183.753L114.32 182.03C107.463 196.673 94.4939 203.169 91.1429 223.376C92.0002 243.188 106.572 248.357 114.286 250.941C138.286 267.307 200 253.525 200.857 233.713C225.714 208.733 206.857 190.644 179.429 199.258C151.143 186.337 106.572 202.703 100.571 217.347C104 224.238 115.143 223.376 119.429 227.683C113.497 234.881 110.927 238.779 110.857 244.911C76.5716 223.376 111.749 199.258 119.463 183.753ZM170.857 201.842C150.358 208.322 140.652 213.379 124.572 223.376L105.714 216.485C130.352 202.633 144.231 195.533 170.857 201.842ZM116.857 246.634C115.042 239.336 117.861 237.711 125.429 229.406C151.143 238.02 177.02 238.037 195.714 227.683V231.129C160.572 253.525 117.714 250.079 116.857 246.634ZM146.857 253.525C166.482 249.453 176.883 246.531 193.143 238.881C180.296 250.559 169.306 252.789 146.857 253.525ZM178.572 205.287C157.828 210.895 147.277 215.375 130.572 225.961C155.444 231.65 169.387 234.678 194 223.376C190.965 214.836 187.981 210.686 178.572 205.287ZM186.286 203.565C210.286 200.119 211.143 210.456 200.857 226.822L200 224.238C204.466 219.116 202.275 215.137 200.891 207.01L195.749 208.733C197.463 213.901 197.429 215.624 197.429 218.208C194.793 211.728 192.25 208.562 186.286 203.565Z" fill="black"/>
<path d="M120.874 179.685L121.462 179.841L119.93 183.258L114.051 181.691L114.406 177.96L114.994 178.117M120.874 179.685L122.091 177.459L121.503 177.302M120.874 179.685L114.994 178.117M114.994 178.117L115.035 175.578L115.623 175.735M121.503 177.302L122.72 175.076L122.132 174.92M121.503 177.302L115.623 175.735M115.623 175.735L115.664 173.195L116.252 173.352M122.132 174.92L123.349 172.694L122.761 172.537M122.132 174.92L116.252 173.352M116.252 173.352L116.293 170.813L116.881 170.97M122.761 172.537L126.849 157.051L120.969 155.484L116.881 170.97M122.761 172.537L116.881 170.97M119.463 183.753C119.463 183.753 116.892 182.891 114.32 182.03M119.463 183.753C111.749 199.258 76.5716 223.376 110.857 244.911C110.927 238.779 113.497 234.881 119.429 227.683C115.143 223.376 104 224.238 100.571 217.347C106.572 202.703 151.143 186.337 179.429 199.258C206.857 190.644 225.714 208.733 200.857 233.713C200 253.525 138.286 267.307 114.286 250.941C106.572 248.357 92.0002 243.188 91.1429 223.376C94.4939 203.169 107.463 196.673 114.32 182.03M119.463 183.753L114.32 182.03M152.857 2L302 263H2L152.857 2ZM160.53 51.9604L160.847 53.1508C160.847 53.1508 160.232 55.5685 160.624 57.0386C161.016 58.5088 162.752 60.2935 162.752 60.2935L201.793 206.719L194.742 208.618L155.701 62.1922C155.701 62.1922 155.813 59.9072 155.336 58.4626C154.831 56.9303 153.209 55.2077 153.209 55.2077L152.891 54.0172L160.53 51.9604ZM124.572 223.376C140.652 213.379 150.358 208.322 170.857 201.842C144.231 195.533 130.352 202.633 105.714 216.485L124.572 223.376ZM125.429 229.406C117.861 237.711 115.042 239.336 116.857 246.634C117.714 250.079 160.572 253.525 195.714 231.129V227.683C177.02 238.037 151.143 238.02 125.429 229.406ZM146.857 253.525C166.482 249.453 176.883 246.531 193.143 238.881C180.296 250.559 169.306 252.789 146.857 253.525ZM130.572 225.961C147.277 215.375 157.828 210.895 178.572 205.287C187.981 210.686 190.965 214.836 194 223.376C169.387 234.678 155.444 231.65 130.572 225.961ZM200.857 226.822C211.143 210.456 210.286 200.119 186.286 203.565C192.25 208.562 194.793 211.728 197.429 218.208C197.429 215.624 197.463 213.901 195.749 208.733L200.891 207.01C202.275 215.137 204.466 219.116 200 224.238L200.857 226.822Z" stroke="black" stroke-width="2"/>
</svg>
