<svg width="20" height="21" viewBox="0 0 20 21" fill="none" xmlns="http://www.w3.org/2000/svg">
<g clip-path="url(#clip0_361_120)">
<path d="M0.464844 20.0744L1.81128 15.1575C0.980744 13.7185 0.543884 12.0861 0.544495 10.4137C0.546631 5.18197 4.80414 0.925537 10.0358 0.925537C12.5745 0.926605 14.9575 1.91476 16.7495 3.70828C18.5413 5.50179 19.5278 7.88582 19.5269 10.4214C19.5246 15.653 15.2665 19.91 10.0358 19.91C10.0355 19.91 10.0359 19.91 10.0358 19.91H10.0317C8.44322 19.9094 6.88255 19.511 5.49628 18.7549L0.464844 20.0744ZM5.72929 17.0373L6.01752 17.208C7.22846 17.9267 8.61686 18.3068 10.0327 18.3075H10.0358C14.3836 18.3075 17.9224 14.7693 17.9243 10.4208C17.925 8.31337 17.1053 6.33171 15.6159 4.84109C14.1264 3.35046 12.1459 2.52908 10.0387 2.52816C5.68732 2.52816 2.14865 6.06591 2.14697 10.4143C2.14636 11.9045 2.56324 13.3556 3.35303 14.6114L3.54071 14.9099L2.74359 17.82L5.72929 17.0373Z" fill="white"/>
<path d="M0.464844 20.0744L1.81128 15.1575C0.980744 13.7185 0.543884 12.0861 0.544495 10.4137C0.546631 5.18197 4.80414 0.925537 10.0358 0.925537C12.5745 0.926605 14.9575 1.91476 16.7495 3.70828C18.5413 5.50179 19.5278 7.88582 19.5269 10.4214C19.5246 15.653 15.2665 19.91 10.0358 19.91C10.0355 19.91 10.0359 19.91 10.0358 19.91H10.0317C8.44322 19.9094 6.88255 19.511 5.49628 18.7549L0.464844 20.0744ZM5.72929 17.0373L6.01752 17.208C7.22846 17.9267 8.61686 18.3068 10.0327 18.3075H10.0358C14.3836 18.3075 17.9224 14.7693 17.9243 10.4208C17.925 8.31337 17.1053 6.33171 15.6159 4.84109C14.1264 3.35046 12.1459 2.52908 10.0387 2.52816C5.68732 2.52816 2.14865 6.06591 2.14697 10.4143C2.14636 11.9045 2.56324 13.3556 3.35303 14.6114L3.54071 14.9099L2.74359 17.82L5.72929 17.0373Z" fill="white"/>
<path fill-rule="evenodd" clip-rule="evenodd" d="M7.6636 6.44709C7.48599 6.05219 7.29891 6.04425 7.12985 6.03739C6.9916 6.03144 6.83337 6.03174 6.67544 6.03174C6.51736 6.03174 6.2604 6.09125 6.04312 6.32853C5.82568 6.5658 5.21289 7.13953 5.21289 8.30638C5.21289 9.47338 6.0628 10.6009 6.18136 10.7592C6.29992 10.9175 7.82198 13.3885 10.2324 14.3391C12.2357 15.1292 12.6433 14.9721 13.0782 14.9325C13.513 14.893 14.4812 14.3588 14.6788 13.8051C14.8766 13.2513 14.8766 12.7768 14.8172 12.6774C14.7579 12.5787 14.5998 12.5194 14.3626 12.4008C14.1255 12.2822 12.9596 11.7083 12.7422 11.6293C12.5247 11.5501 12.3667 11.5107 12.2086 11.7482C12.0503 11.9853 11.5962 12.5194 11.4578 12.6774C11.3194 12.836 11.181 12.8558 10.9439 12.7371C10.7068 12.6182 9.94295 12.368 9.03689 11.56C8.33193 10.9315 7.85586 10.1551 7.71746 9.91772C7.57922 9.68059 7.71517 9.56341 7.82168 9.43386C8.01348 9.20055 8.33529 8.78108 8.41433 8.623C8.49337 8.46461 8.45385 8.32622 8.39465 8.2075C8.33529 8.08894 7.87432 6.91614 7.6636 6.44709Z" fill="white"/>
</g>
<defs>
<clipPath id="clip0_361_120">
<rect width="20" height="20" fill="white" transform="translate(0.000244141 0.5)"/>
</clipPath>
</defs>
</svg>
