<svg width="18" height="18" viewBox="0 0 18 18" fill="none" xmlns="http://www.w3.org/2000/svg">
<path fill-rule="evenodd" clip-rule="evenodd" d="M9.65604 2.00262C5.81184 2.00262 2.37223 5.17516 2.03078 9.08669C1.69494 12.934 4.48478 15.9974 8.25939 15.9974C9.58368 15.9974 10.416 15.8625 11.8005 15.3695C12.3217 15.184 12.8946 15.4558 13.0803 15.9768C13.2659 16.4977 12.9939 17.0705 12.4728 17.256C10.8766 17.8244 9.81712 18 8.25939 18C3.28062 18 -0.400485 13.9011 0.0349771 8.9126C0.464835 3.98827 4.75115 0 9.65604 0C12.3467 0 14.546 0.894525 16.0167 2.4992C17.4848 4.10118 18.1243 6.29952 17.9141 8.709L17.914 8.70962C17.5906 12.3905 15.1224 13.9317 13.3158 13.6134L13.3142 13.6131L13.3126 13.6128C12.5663 13.4788 11.8712 13.0694 11.3948 12.3779C10.5612 13.1861 9.4517 13.6343 8.25009 13.6343C5.68164 13.6343 4.18469 11.3246 4.3952 8.90985C4.61603 6.37673 6.66187 4.79871 8.46465 4.51801C9.42013 4.36684 10.3393 4.4846 11.1037 4.73803C11.8474 4.98463 12.5363 5.39132 12.9645 5.90919L13.2404 6.24276L12.7867 9.84648C12.7278 10.5557 12.8738 10.9853 13.0348 11.2273C13.192 11.4635 13.4107 11.5953 13.6649 11.6414C14.0204 11.7025 15.6697 11.3643 15.9183 8.53439C16.0886 6.58129 15.5636 4.96951 14.5394 3.85197C13.5176 2.73702 11.8965 2.00262 9.65604 2.00262ZM10.9051 8.75336L11.1326 6.94658C10.9708 6.84206 10.7508 6.73094 10.473 6.63883C9.97742 6.47453 9.38207 6.40024 8.77688 6.49617L8.77533 6.49641L8.77377 6.49665C7.7307 6.65864 6.51929 7.61233 6.39102 9.08371C6.25237 10.6742 7.17809 11.6317 8.25009 11.6317C9.52165 11.6317 10.7191 10.7429 10.879 8.90979C10.8837 8.85619 10.8925 8.80395 10.9051 8.75336Z" fill="white"/>
</svg>
