<svg width="18" height="15" viewBox="0 0 18 15" fill="none" xmlns="http://www.w3.org/2000/svg">
<path d="M15.6004 15C15.5216 15.0001 15.4435 14.984 15.3707 14.9525C15.2979 14.9211 15.2318 14.8749 15.1762 14.8167L1.97653 1.05628C1.86876 0.938026 1.80957 0.780563 1.81157 0.617464C1.81358 0.454365 1.87662 0.298534 1.98726 0.183196C2.09789 0.0678584 2.24738 0.0021395 2.40383 5.13208e-05C2.56028 -0.00203686 2.71133 0.0596711 2.82476 0.172018L16.0245 13.9324C16.1083 14.0199 16.1654 14.1313 16.1886 14.2526C16.2117 14.3739 16.1998 14.4996 16.1544 14.6138C16.109 14.7281 16.0322 14.8258 15.9336 14.8945C15.8349 14.9632 15.719 14.9999 15.6004 15V15Z" fill="white"/>
<path d="M8.9878 12.4981C7.43196 12.4981 5.93162 12.018 4.5284 11.0712C3.2508 10.2112 2.1007 8.97939 1.20222 7.51383V7.51071C1.94996 6.39385 2.76894 5.44939 3.64867 4.68788C3.65663 4.68094 3.66312 4.67236 3.66773 4.66267C3.67235 4.65299 3.67498 4.64241 3.67548 4.63161C3.67597 4.62081 3.67431 4.61002 3.6706 4.59992C3.66689 4.58982 3.66121 4.58064 3.65392 4.57294L2.90693 3.79541C2.89366 3.78145 2.87583 3.77322 2.857 3.77235C2.83817 3.77149 2.81972 3.77804 2.80531 3.79071C1.87083 4.61165 1.00348 5.61866 0.214868 6.79767C0.0791905 7.00068 0.0044674 7.24115 0.000194108 7.48853C-0.00407919 7.73591 0.0622903 7.97903 0.190869 8.187C1.18122 9.80267 2.45582 11.1635 3.87629 12.1216C5.47563 13.2017 7.19684 13.749 8.9878 13.749C9.95452 13.7459 10.9144 13.5798 11.8302 13.2572C11.8423 13.253 11.8532 13.2455 11.8617 13.2357C11.8703 13.2258 11.8763 13.2139 11.8792 13.2009C11.8821 13.1879 11.8818 13.1744 11.8782 13.1617C11.8747 13.1489 11.8681 13.1372 11.8591 13.1278L11.0499 12.2842C11.0313 12.2653 11.0082 12.2517 10.983 12.2449C10.9579 12.238 10.9314 12.2381 10.9063 12.2451C10.2796 12.4134 9.63496 12.4984 8.9878 12.4981V12.4981Z" fill="white"/>
<path d="M17.8071 6.8142C16.8149 5.21456 15.5275 3.85572 14.0846 2.88429C12.4882 1.80847 10.7258 1.23969 8.98806 1.23969C8.03159 1.24145 7.08223 1.41101 6.17974 1.74124C6.16772 1.7456 6.15696 1.75308 6.14847 1.76297C6.13999 1.77287 6.13406 1.78485 6.13125 1.7978C6.12844 1.81074 6.12883 1.82422 6.13239 1.83696C6.13596 1.8497 6.14257 1.86129 6.15162 1.87063L6.95973 2.71306C6.97854 2.73234 7.0019 2.74611 7.02744 2.75297C7.05299 2.75983 7.07982 2.75955 7.10522 2.75215C7.71907 2.57905 8.35215 2.49111 8.98806 2.49063C10.5139 2.49063 12.0097 2.97654 13.4336 3.93703C14.7352 4.81269 15.8988 6.04331 16.7995 7.4944C16.8002 7.4953 16.8005 7.4964 16.8005 7.49753C16.8005 7.49866 16.8002 7.49976 16.7995 7.50066C16.1457 8.5737 15.3343 9.5331 14.3951 10.3438C14.387 10.3507 14.3804 10.3593 14.3758 10.369C14.3711 10.3787 14.3684 10.3893 14.3679 10.4002C14.3673 10.411 14.369 10.4219 14.3727 10.432C14.3764 10.4422 14.3821 10.4514 14.3894 10.4591L15.1357 11.2367C15.1489 11.2506 15.1666 11.2588 15.1854 11.2597C15.2041 11.2607 15.2225 11.2543 15.2369 11.2418C16.2397 10.3616 17.1076 9.32705 17.8109 8.17382C17.9352 7.9706 18.0009 7.73445 18.0002 7.49344C17.9996 7.25242 17.9325 7.01667 17.8071 6.8142V6.8142Z" fill="white"/>
<path d="M9.00076 3.74152C8.73111 3.74136 8.4623 3.77284 8.1994 3.83534C8.18612 3.83821 8.17384 3.84479 8.16386 3.85436C8.15388 3.86393 8.14658 3.87615 8.14273 3.88971C8.13888 3.90327 8.13863 3.91766 8.14201 3.93135C8.14538 3.94504 8.15226 3.95752 8.1619 3.96747L12.3839 8.36766C12.3935 8.37771 12.4054 8.38488 12.4186 8.3884C12.4317 8.39192 12.4455 8.39166 12.4585 8.38765C12.4715 8.38363 12.4832 8.37602 12.4924 8.36562C12.5016 8.35522 12.5079 8.34241 12.5107 8.32857C12.6309 7.77895 12.6308 7.20817 12.5103 6.6586C12.3899 6.10903 12.1523 5.59481 11.8151 5.15412C11.4779 4.71343 11.0498 4.3576 10.5625 4.11304C10.0753 3.86849 9.54151 3.74151 9.00076 3.74152V3.74152Z" fill="white"/>
<path d="M5.61741 6.62098C5.60787 6.61092 5.59589 6.60376 5.58276 6.60024C5.56962 6.59672 5.55582 6.59698 5.54281 6.60099C5.52981 6.605 5.51809 6.61261 5.50891 6.62302C5.49972 6.63342 5.49342 6.64622 5.49066 6.66007C5.35467 7.27942 5.37174 7.92463 5.54029 8.53522C5.70883 9.14582 6.02333 9.7018 6.4543 10.1511C6.88526 10.6004 7.4186 10.9282 8.00431 11.1039C8.59003 11.2796 9.20895 11.2974 9.80307 11.1556C9.81634 11.1528 9.82863 11.1462 9.83861 11.1366C9.84859 11.127 9.85589 11.1148 9.85973 11.1013C9.86358 11.0877 9.86383 11.0733 9.86046 11.0596C9.85708 11.0459 9.85021 11.0335 9.84056 11.0235L5.61741 6.62098Z" fill="white"/>
</svg>
