<svg width="18" height="13" viewBox="0 0 18 13" fill="none" xmlns="http://www.w3.org/2000/svg">
<path fill-rule="evenodd" clip-rule="evenodd" d="M8.93286 3.83319C7.60743 3.83319 6.53296 4.90767 6.53296 6.2331C6.53296 7.55853 7.60743 8.633 8.93286 8.633C10.2583 8.633 11.3328 7.55853 11.3328 6.2331C11.3328 4.90767 10.2583 3.83319 8.93286 3.83319ZM5.33301 6.2331C5.33301 4.24495 6.94472 2.63324 8.93286 2.63324C10.921 2.63324 12.5327 4.24495 12.5327 6.2331C12.5327 8.22124 10.921 9.83295 8.93286 9.83295C6.94472 9.83295 5.33301 8.22124 5.33301 6.2331Z" fill="white"/>
<path fill-rule="evenodd" clip-rule="evenodd" d="M0.214066 5.83137C2.65397 2.33394 5.81757 0.5 8.98693 0.5C12.7092 0.5 15.9156 2.92494 17.8074 5.84669L17.8082 5.84807C17.9334 6.04258 18 6.26901 18 6.50032C18 6.73122 17.9337 6.95724 17.8089 7.15152C15.9188 10.1109 12.7331 12.4995 8.98693 12.4995C5.20083 12.4995 2.07656 10.1159 0.191106 7.16511C0.0629917 6.96617 -0.00345666 6.73379 0.000138543 6.49717C0.00374268 6.25997 0.0775777 6.02915 0.212313 5.8339L0.214066 5.83137ZM1.19996 6.51541L1.20162 6.518C2.94309 9.244 5.73428 11.2996 8.98693 11.2996C12.2031 11.2996 15.0545 9.23527 16.7981 6.50496L16.7992 6.50317C16.7998 6.50232 16.8 6.50133 16.8 6.50032C16.8 6.4999 16.8 6.49948 16.7999 6.49907C16.7998 6.49856 16.7996 6.49806 16.7993 6.4976C15.0491 3.79519 12.1744 1.69995 8.98693 1.69995C6.31171 1.69995 3.48006 3.24833 1.19996 6.51541Z" fill="white"/>
</svg>
